<svg width="28" height="28" viewBox="0 0 28 28" fill="none" xmlns="http://www.w3.org/2000/svg">
<path d="M14 2.3335C7.56708 2.3335 2.33337 7.56721 2.33337 14.0002C2.33337 20.4331 7.56708 25.6668 14 25.6668C20.433 25.6668 25.6667 20.4331 25.6667 14.0002C25.6667 7.56721 20.433 2.3335 14 2.3335ZM14 4.0835C19.4872 4.0835 23.9167 8.51297 23.9167 14.0002C23.9167 18.8889 20.3976 22.9289 15.75 23.7539V16.9168H17.8646C18.1586 16.9168 18.4072 16.6969 18.4434 16.4053L18.6621 14.6553C18.6831 14.4896 18.6306 14.3233 18.5197 14.1973C18.4095 14.0718 18.2508 14.0002 18.0834 14.0002H15.75V11.9585C15.75 11.3151 16.2733 10.7918 16.9167 10.7918H18.0834C18.4054 10.7918 18.6667 10.5311 18.6667 10.2085V8.23975C18.6667 7.93758 18.4362 7.68552 18.1358 7.65869C18.1014 7.65577 17.2784 7.5835 16.2365 7.5835C13.6658 7.5835 12.25 9.1096 12.25 11.881V14.0002H9.91671C9.59471 14.0002 9.33337 14.2609 9.33337 14.5835V16.3335C9.33337 16.6561 9.59471 16.9168 9.91671 16.9168H12.25V23.7539C7.60252 22.9289 4.08337 18.8889 4.08337 14.0002C4.08337 8.51297 8.51285 4.0835 14 4.0835Z" fill="#C4C6CA"/>
</svg>
