<svg width="28" height="28" viewBox="0 0 28 28" fill="none" xmlns="http://www.w3.org/2000/svg">
<path d="M9.62496 2.9165C5.93035 2.9165 2.91663 5.93023 2.91663 9.62484V18.3748C2.91663 22.0689 5.93025 25.0832 9.62496 25.0832H18.375C22.0692 25.0832 25.0833 22.0691 25.0833 18.3748V9.62484C25.0833 5.93013 22.0691 2.9165 18.375 2.9165H9.62496ZM9.62496 4.6665H18.375C21.1232 4.6665 23.3333 6.87605 23.3333 9.62484V18.3748C23.3333 21.123 21.1231 23.3332 18.375 23.3332H9.62496C6.87617 23.3332 4.66663 21.1231 4.66663 18.3748V9.62484C4.66663 6.87594 6.87607 4.6665 9.62496 4.6665ZM19.8333 6.99984C19.1887 6.99984 18.6666 7.52192 18.6666 8.1665C18.6666 8.81109 19.1887 9.33317 19.8333 9.33317C20.4779 9.33317 21 8.81109 21 8.1665C21 7.52192 20.4779 6.99984 19.8333 6.99984ZM14 8.1665C10.7888 8.1665 8.16663 10.7887 8.16663 13.9998C8.16663 17.211 10.7888 19.8332 14 19.8332C17.2111 19.8332 19.8333 17.211 19.8333 13.9998C19.8333 10.7887 17.2111 8.1665 14 8.1665ZM14 9.9165C16.2651 9.9165 18.0833 11.7347 18.0833 13.9998C18.0833 16.265 16.2651 18.0832 14 18.0832C11.7348 18.0832 9.91663 16.265 9.91663 13.9998C9.91663 11.7347 11.7348 9.9165 14 9.9165Z" fill="#C4C4C4"/>
</svg>
