<svg width="28" height="28" viewBox="0 0 28 28" fill="none" xmlns="http://www.w3.org/2000/svg">
<path d="M6.70833 3.5C4.9468 3.5 3.5 4.9468 3.5 6.70833V21.2917C3.5 23.0532 4.9468 24.5 6.70833 24.5H21.2917C23.0532 24.5 24.5 23.0532 24.5 21.2917V6.70833C24.5 4.9468 23.0532 3.5 21.2917 3.5H6.70833ZM6.70833 5.25H21.2917C22.1073 5.25 22.75 5.8927 22.75 6.70833V21.2917C22.75 22.1073 22.1073 22.75 21.2917 22.75H6.70833C5.8927 22.75 5.25 22.1073 5.25 21.2917V6.70833C5.25 5.8927 5.8927 5.25 6.70833 5.25ZM9.04167 7.58333C8.65489 7.58333 8.28396 7.73698 8.01047 8.01047C7.73698 8.28396 7.58333 8.65489 7.58333 9.04167C7.58333 9.42844 7.73698 9.79937 8.01047 10.0729C8.28396 10.3464 8.65489 10.5 9.04167 10.5C9.42844 10.5 9.79937 10.3464 10.0729 10.0729C10.3464 9.79937 10.5 9.42844 10.5 9.04167C10.5 8.65489 10.3464 8.28396 10.0729 8.01047C9.79937 7.73698 9.42844 7.58333 9.04167 7.58333ZM8.16667 11.6667C7.84408 11.6667 7.58333 11.9274 7.58333 12.25V19.8333C7.58333 20.1559 7.84408 20.4167 8.16667 20.4167H9.91667C10.2392 20.4167 10.5 20.1559 10.5 19.8333V12.25C10.5 11.9274 10.2392 11.6667 9.91667 11.6667H8.16667ZM12.25 11.6667C11.9274 11.6667 11.6667 11.9274 11.6667 12.25V19.8333C11.6667 20.1559 11.9274 20.4167 12.25 20.4167H14C14.3226 20.4167 14.5833 20.1559 14.5833 19.8333V15.4583C14.5833 14.6539 15.2372 14 16.0417 14C16.8461 14 17.5 14.6539 17.5 15.4583V19.8333C17.5 20.1559 17.7607 20.4167 18.0833 20.4167H19.8333C20.1559 20.4167 20.4167 20.1559 20.4167 19.8333V15.1667C20.4167 13.2364 18.8469 11.6667 16.9167 11.6667C16.0195 11.6667 15.2034 12.0085 14.5833 12.5656V12.25C14.5833 11.9274 14.3226 11.6667 14 11.6667H12.25Z" fill="#C4C4C4"/>
</svg>
