<svg width="28" height="28" viewBox="0 0 28 28" fill="none" xmlns="http://www.w3.org/2000/svg">
<path d="M18.6666 3.5C15.4983 3.5 12.927 6.06009 12.8583 9.21256C10.057 8.87658 8.23287 7.82921 7.11387 6.7972C5.87293 5.65272 5.48009 4.6359 5.48009 4.6359C5.42273 4.4914 5.32792 4.36478 5.20539 4.26908C5.08287 4.17337 4.93706 4.11204 4.78297 4.09139C4.62888 4.07073 4.47206 4.0915 4.32866 4.15156C4.18526 4.21162 4.06045 4.3088 3.96706 4.43311C3.96706 4.43311 2.91661 5.83333 2.91661 7.875C2.91661 9.04224 3.28516 9.90591 3.72439 10.6379C3.70821 10.6303 3.59906 10.5923 3.59906 10.5923C3.45961 10.5227 3.30408 10.4915 3.14857 10.5022C2.99306 10.5128 2.8432 10.5647 2.7145 10.6527C2.5858 10.7406 2.48292 10.8613 2.4165 11.0023C2.35008 11.1433 2.32253 11.2995 2.33669 11.4548C2.33669 11.4548 2.67348 13.9165 4.9879 15.7158L4.74636 15.7762C4.61525 15.8089 4.4935 15.8716 4.39066 15.9592C4.28781 16.0469 4.20667 16.1572 4.15358 16.2815C4.10049 16.4057 4.07691 16.5406 4.08468 16.6755C4.09244 16.8104 4.13135 16.9417 4.19835 17.0591C4.19835 17.0591 4.59081 17.723 5.41287 18.4217C5.90027 18.836 6.61627 19.2635 7.46023 19.659C6.42377 20.0378 4.87825 20.4167 2.62494 20.4167C2.4568 20.4166 2.29221 20.4651 2.15086 20.5561C2.00952 20.6472 1.89741 20.7771 1.82794 20.9302C1.75847 21.0833 1.73458 21.2532 1.75914 21.4196C1.7837 21.5859 1.85566 21.7416 1.96641 21.8682C1.96641 21.8682 2.63505 22.6048 3.95681 23.2456C5.27857 23.8865 7.31464 24.5 10.2083 24.5C15.2948 24.5 18.9493 22.06 21.2301 18.9674C23.5108 15.8749 24.4999 12.169 24.4999 9.33333C24.4999 9.1534 24.4887 8.97601 24.4726 8.80013C25.7042 7.61343 26.1663 6.7213 26.1884 6.67757C26.2993 6.45532 26.258 6.1884 26.0859 6.01107C25.9144 5.83315 25.6485 5.78305 25.4228 5.88688L25.3282 5.93018C25.2471 5.96751 25.1661 6.00508 25.0844 6.04183C25.3218 5.66325 25.5092 5.25868 25.6393 4.83984C25.7116 4.60884 25.6335 4.35571 25.4422 4.20638C25.2508 4.05705 24.9873 4.04106 24.7802 4.16764C24.0672 4.60096 23.3838 4.90431 22.6725 5.10758C21.6256 4.11453 20.2165 3.5 18.6666 3.5ZM18.6666 5.25C20.9318 5.25 22.7499 7.06815 22.7499 9.33333C22.7499 11.7477 21.8432 15.1876 19.8219 17.9284C17.8006 20.6692 14.7468 22.75 10.2083 22.75C8.01191 22.75 6.55089 22.3527 5.45616 21.9229C6.60289 21.7448 7.59024 21.5071 8.29991 21.2324C9.53055 20.756 10.1946 20.2059 10.1946 20.2059C10.3164 20.1014 10.4071 19.9653 10.4568 19.8127C10.5065 19.6601 10.5132 19.4967 10.4763 19.3405C10.4393 19.1843 10.3602 19.0412 10.2474 18.927C10.1346 18.8128 9.99258 18.7318 9.83686 18.6929C8.2486 18.2958 7.22997 17.6536 6.59093 17.1183L7.50352 16.8905C7.684 16.8454 7.84543 16.744 7.96438 16.601C8.08334 16.458 8.15363 16.2808 8.16506 16.0952C8.17649 15.9095 8.12846 15.7251 8.02794 15.5685C7.92743 15.412 7.77965 15.2916 7.60606 15.2248C5.71307 14.4967 4.91816 13.4671 4.51166 12.6043C5.00632 12.7067 5.46688 12.8333 6.12494 12.8333C6.322 12.8332 6.51323 12.7665 6.66768 12.6441C6.82213 12.5218 6.93076 12.3508 6.97597 12.159C7.02119 11.9672 7.00034 11.7658 6.91681 11.5873C6.83329 11.4088 6.69197 11.2638 6.51573 11.1756C6.51573 11.1756 4.66661 10.325 4.66661 7.875C4.66661 7.43514 4.78843 7.15654 4.87738 6.8234C5.18257 7.23354 5.43409 7.62918 5.9267 8.0835C7.42859 9.46864 9.91099 10.881 13.6616 11.0822C13.7802 11.0885 13.899 11.0706 14.0105 11.0296C14.122 10.9885 14.224 10.9252 14.3103 10.8434C14.3965 10.7616 14.4652 10.6631 14.5121 10.554C14.5591 10.4448 14.5833 10.3272 14.5833 10.2083V9.33333C14.5833 7.06815 16.4014 5.25 18.6666 5.25Z" fill="#C4C4C4"/>
</svg>
