<svg width="241" height="342" viewBox="0 0 241 342" fill="none" xmlns="http://www.w3.org/2000/svg">
<path d="M114.61 0.929932L115.049 1.19172L118.298 3.54765L119.878 5.03103L120.493 5.90361L121.019 6.95071L122.073 10.6155L122.512 11.7499L123.478 12.8842L124.268 13.6695L135.067 19.8648L136.823 20.3883L139.545 20.6501L140.423 20.8246L141.213 21.2609L142.004 21.9589L144.374 24.8384L147.974 28.2415L149.554 29.3758L150.432 29.7248L152.013 30.0739L158.334 30.2484L160.003 30.5974L161.671 31.2082L164.041 32.5171L173.348 39.2359L174.226 39.6722L175.192 39.9339L176.07 40.1085H176.948L182.567 39.0614L183.533 39.1486L184.323 39.4104L185.201 39.9339L191.435 46.042L192.489 47.6126L193.191 48.3979L193.981 48.9214L206.098 53.7206L206.537 54.0696L207.063 54.5932L207.59 55.3785L207.941 56.1638L208.205 56.9491L208.38 58.258L209.258 114.19L209.61 116.11L209.873 116.72L210.4 117.506L211.014 118.291L224.448 127.977L234.018 137.575L235.598 139.495L237.179 142.112L238.759 145.777L239.637 148.744L240.252 153.717L239.988 162.879L229.189 250.748L219.004 329.977L214.087 331.373L125.322 340.884L115.576 340.274L111.976 339.401L109.957 338.616L107.235 337.307L96.6988 330.675L96.0842 330.239L81.1582 316.54L77.4706 310.432L75.3634 307.901L74.7488 306.941L74.4854 305.632V304.673L75.978 297.779L76.6804 296.296L78.8754 292.718L79.2266 292.02L79.49 291.235V291.06L79.5778 290.275L79.49 289.577L79.2266 288.704L78.6998 287.745L75.6268 284.254L73.344 281.288L72.1148 279.368L70.0954 276.925L64.564 271.951L54.6426 257.205L54.2036 256.419L53.9402 255.547V254.674V253.889L55.5206 248.043L55.784 246.297L55.2572 239.491L55.345 238.706L55.6962 237.921L56.1352 237.135L57.2766 235.652L57.7156 234.867L58.0668 233.994L58.3302 233.209L58.5058 232.336V231.551L56.5742 217.939V216.281L57.6278 210.26V210.086L57.0132 209.475L56.3108 209.039L55.5206 208.864L51.0428 207.991L50.1648 207.904L49.3746 208.079L44.8968 209.3L44.0188 209.388L43.1408 209.3L41.4726 208.69L40.5946 208.166L39.8044 207.468L39.0142 205.897L38.7508 204.85L38.663 203.89L38.9264 199.702L39.4532 197.957L39.6288 197.259L39.4532 196.386L38.9264 195.514L37.8728 194.641L36.9948 194.205L36.029 193.856L34.3608 193.507L26.1076 192.809L20.225 192.896L18.8202 192.634L18.03 192.372L17.152 192.023L16.3618 191.5L15.6594 190.889L15.1326 190.278L14.6936 189.755L9.86458 178.149L8.72317 172.303L8.37197 171.256L7.40617 169.075L5.38678 162.618L4.68436 161.309L3.89417 160.524L3.10397 159.913L1.69917 159.04L1.26017 158.691L0.821165 158.08L0.557776 157.295L0.469971 154.677L0.821165 150.751L0.73336 146.999L1.17236 139.931L1.87478 136.79L1.96258 135.219V134.259L1.43578 132.863L1.34797 132.601V131.99L1.61136 131.292L2.22597 130.333L3.98197 128.064L4.06978 127.889L4.50878 126.668L5.03558 124.835L4.94778 123.439L5.73797 121.869L8.19636 118.029L8.72317 117.506L9.77678 116.72L10.6548 116.371L11.5328 116.197L12.323 116.371L16.3618 118.378L18.03 118.989L20.7518 119.687L27.6002 120.385H29.444L34.8876 119.6L36.6436 119.687L39.6288 120.472H40.3312L41.1214 120.298L41.9994 119.862L42.9652 119.076L43.6676 118.029L44.2822 116.546L44.37 115.411L44.1066 114.452L43.053 112.707L42.7018 111.921L42.5262 111.049L42.7018 110.002L43.2286 108.867L46.9162 104.068L50.516 100.403L51.4818 99.7924L52.3598 99.3562L65.003 96.3022L66.4956 95.6041L67.4614 94.9933L69.4808 93.0736L72.2026 91.3285L72.9928 90.4559L73.6952 89.3216L75.1 86.5293L76.1536 85.1332L76.7682 84.5224L77.2072 84.0861L77.8218 83.6499L78.612 83.3008L79.4022 83.039L80.2802 82.8645H82.0362L90.1138 83.9116L99.1572 83.3008L102.581 83.5626L103.372 83.4753L104.074 83.2136L104.513 82.6028L104.776 81.8174L104.952 80.9449L105.04 79.7233V78.2399L104.689 75.7967L104.25 74.3133L103.723 73.0917L102.669 71.172L102.406 70.2122L102.581 68.9906L103.02 67.071L102.845 65.7621L102.757 65.5876L99.8596 61.661L96.5232 56.0765L95.5574 54.9422L92.5722 51.9754L91.9576 51.1029L91.5186 50.3176L91.343 49.445V48.5724L92.1332 43.0752V41.2428L91.8698 39.3231L91.9576 38.3633L92.66 37.4035L93.538 36.8799L94.416 36.6182L95.9086 36.2691L96.3476 36.0946L96.9622 35.4838L99.7718 31.47L101.177 29.8994L102.845 28.3287L103.811 27.6307L104.776 27.1071L106.62 26.4963L107.498 26.06L108.201 25.4492L108.727 24.7512L108.991 24.0531L109.166 23.5296V23.4423V22.8315L109.079 22.0462L108.815 21.1736L108.464 20.2138L108.025 19.3412L107.41 18.4687L106.62 17.6833L105.04 16.3745L103.372 15.1529L100.913 14.1058L100.65 13.5822L100.299 12.0989L100.211 11.139L100.299 10.2665L100.386 9.48116L100.825 8.1723L101.352 6.77618L102.406 5.1183L103.372 3.80944L104.601 2.76234L105.128 2.32605H105.215L107.41 1.45348L108.113 2.06429L108.288 2.32605L108.376 2.41332L108.903 3.11136L109.605 3.63491L110.396 3.98394L111.274 4.0712L112.239 3.63491L113.03 3.19863L114.61 0.929932Z" fill="#00BE99" stroke="#ABABAB" stroke-width="0.5" stroke-linecap="round" stroke-linejoin="round"/>
</svg>
