<svg width="192" height="238" viewBox="0 0 192 238" fill="none" xmlns="http://www.w3.org/2000/svg">
<path d="M116.934 170.332L118.602 169.634L120.183 169.546L120.973 169.634L121.5 169.895L121.939 170.244L122.553 170.943L122.992 171.728L123.256 172.6V173.386L123.168 174.171L122.026 179.406V180.366L122.114 181.413L122.29 182.199L123.87 184.904L124.134 185.864V186.823L122.817 190.924L122.465 191.71L121.939 192.408L121.236 192.931L120.534 193.193L120.007 193.368H119.48L115.266 192.931H114.388L113.598 193.106L112.72 193.368L111.051 194.327L109.12 195.811L108.417 196.16L107.715 196.073L106.925 195.724L106.31 195.2L105.696 194.938L105.344 195.287L105.257 196.073L104.993 205.322L105.169 206.98L105.432 207.765L105.696 208.638L106.135 209.423L106.837 210.034L107.539 210.47L108.33 210.645H112.456L114.037 210.732L115.705 211.081L116.495 211.343L117.197 211.779L117.812 212.39L118.251 213.175L120.885 221.028L121.148 222.25V223.297L120.973 224.344L119.656 229.405L118.953 230.976L118.514 231.586L117.812 232.284L115.441 233.593L114.739 234.03L114.124 234.728L113.773 235.426L113.071 237.084L112.632 236.473L112.368 236.036L112.281 235.513L112.105 235.338L111.754 235.164L111.49 234.989L111.666 234.379L110.964 234.291L110.173 234.03L110.349 233.855V233.768L110.437 233.68L110.7 233.506L110.437 233.07L110.086 232.808H109.647L109.12 232.982L109.383 232.633L109.559 232.197L109.647 231.848L109.383 231.586L109.647 231.063L109.383 230.801L108.944 230.714L108.33 230.801L108.417 230.277L108.33 229.492L108.066 228.707L107.715 228.183L107.539 227.747L107.276 226.264L107.188 225.915L107.1 225.566L107.013 223.471L106.925 223.21L106.837 223.035L106.661 222.948H106.398L106.222 222.773L106.135 222.424V222.075L106.047 221.814L104.642 220.854L104.466 220.592L104.379 220.156L104.203 219.719L103.94 219.283L103.325 219.021L103.149 218.847L102.974 218.672L102.886 218.585L102.623 218.672L102.271 219.021L102.096 219.109L101.657 218.934L101.306 218.672L100.867 218.41L100.603 217.974L99.5495 215.793L99.1105 215.182L98.6715 214.658L98.4081 214.135V213.611L98.4959 212.826L99.3739 210.208L99.5495 209.423L99.6373 209.161L99.8129 208.987L99.9007 208.725L99.5495 208.201L99.3739 208.114L98.4959 207.678L96.9155 207.242L96.5643 206.02V205.758L95.7741 204.798L95.5985 204.711V204.275L95.6863 203.839L95.8619 203.053L96.0375 202.617L96.2131 202.268L96.3887 202.006L96.4765 201.308L96.6521 200.435L97.1789 199.476L96.8277 198.865L96.1253 198.429L95.3351 198.08L93.7547 197.643L93.0523 197.12L92.7011 196.073L92.0865 195.2L91.9987 194.851V194.415L92.2621 193.455V193.106L91.9987 192.321V191.972L91.8231 191.622L91.1207 191.186L90.9451 190.837L90.7695 190.052L90.4183 189.616L89.8037 189.267L88.7501 188.481L88.8379 188.307L88.9257 187.87L88.8379 187.434L88.3989 186.823L88.3111 186.474V186.038L88.0477 185.427L88.1355 184.991L88.3989 184.555L88.7501 184.293L88.9257 183.944L88.6623 183.682L88.7501 183.246L88.6623 182.81L88.3989 182.46L88.3111 181.937L85.1503 180.803L84.1845 180.366L82.2529 178.359L81.3749 177.836V177.574L81.8139 177.661L82.6919 178.185L82.8675 176.527L82.7797 174.52L82.5163 173.647L80.7603 171.117L80.0579 170.681L78.1263 170.419H77.3361L76.9849 170.855L77.4239 171.815L76.8971 171.379L76.3703 170.506L76.1069 169.721L76.0191 169.372L75.4923 169.023L73.9119 166.754L72.7705 166.056L72.5071 165.794L72.5949 165.533L73.0339 164.485L72.7705 163.7L72.3315 163.264L71.1901 162.828L69.7853 161.955L69.4341 161.781L69.0829 161.257L68.7317 161.17L68.3805 160.908L67.5025 159.599L67.1513 159.512L66.2733 159.25L65.9221 159.163L65.2197 158.988L64.4295 158.552L62.6735 157.156L61.3565 155.673L61.6199 155.062L61.0053 154.625L59.9517 154.364L58.8103 154.189L58.5469 153.927L58.1957 153.491L57.6689 152.88L57.3177 152.531V152.357L56.9665 152.095L55.7373 150.961L55.1227 150.699H54.2447L53.3667 150.873L52.5765 151.135L52.2253 151.484L51.3473 151.135L49.7669 150.175L48.8889 149.826V150.35L49.1523 150.612L49.5035 150.786L49.7669 151.135L49.9425 151.222L50.2937 151.397L50.5571 151.659L50.2937 151.833L49.6791 151.659L45.9037 149.39L45.3769 148.866L44.9379 148.692L44.1477 148.43L43.4453 148.081L42.9185 146.947L42.2161 146.249L40.1967 144.678L39.1431 143.631L36.9481 140.053L36.1579 139.443V139.094H36.5091H36.8603L37.0359 138.919L37.2115 138.57L36.5969 138.483L36.1579 138.134L35.2799 137.348L35.0165 136.912L34.7531 135.691L34.5775 135.254L33.3483 133.858L33.2605 133.16L33.8751 132.2L32.5581 131.764L32.0313 131.677L32.1191 132.026L32.2947 132.2L32.4703 132.375L32.7337 132.549L32.0313 132.288L31.1533 131.764L30.7143 131.153L30.9777 130.542L30.6265 130.368L30.4509 130.106V129.844L30.7143 129.495L30.8899 129.757L31.1533 130.019L31.5045 130.193L32.0313 130.281L31.8557 129.844L31.7679 129.583V129.321L31.6801 128.972H31.5045L31.2411 129.059L30.9777 128.885L30.4509 128.186H30.2753L30.1875 128.885L29.3973 128.361L28.2559 127.576L27.5535 126.529V125.569L27.7291 125.831L27.9925 126.092L28.2559 126.18L28.3437 125.918L28.2559 125.394L27.9925 125.22L27.7291 125.132L27.4657 124.958L27.1145 124.783H26.6755L26.3243 124.958L25.8853 125.045V124.871L24.8317 123.3L24.5683 122.689L24.4805 121.991V121.031L24.3927 120.682L23.8659 120.333L23.6903 119.897V119.461L23.5147 119.286L23.2513 119.199L21.6709 118.065L21.2319 117.628L21.0563 116.494L20.7051 115.709L20.6173 115.272L20.7051 115.011L21.0563 114.487L21.1441 114.225L20.8807 113.702L19.3881 111.52L18.9491 111.171L17.7199 109.252L20.7051 106.634L21.1441 105.674L21.2319 104.365L20.8807 103.231L20.3539 102.62V102.358L20.7051 102.009V101.486L20.0905 100.177L19.5637 100.962L19.2125 101.137L18.8613 100.613L18.5101 99.8279L18.7735 99.566L18.1589 98.6935L17.9833 97.4719L18.0711 96.2503L17.9833 95.1159L17.6321 94.0688V93.458L18.4223 93.1963L18.5979 92.9345L18.7735 92.411V91.7129L18.5101 91.2766L18.2467 92.0619L17.9833 92.4982L17.7199 92.6728H17.1931L17.1053 92.4982V92.1492L16.9297 91.8002L16.6663 91.6257L16.5785 91.4511L16.4029 91.2766L16.2273 91.0148L16.0517 90.5786V89.9677L15.8761 89.6188L15.4371 89.357L15.3493 89.1825L15.1737 88.8334V88.7462L13.8567 87.0883L12.7153 84.7323L12.1007 81.242V80.4567L13.1543 80.1077L14.1201 81.4165H14.9103L15.0859 80.544V79.7587L15.1737 79.3224L15.2615 79.1479L15.7883 78.7988L15.8761 78.6243L15.9639 77.839L16.3151 76.1811L16.4029 75.3958H16.2273L15.6127 76.7919L15.4371 76.1811L15.5249 75.7448L15.7883 75.3085L15.8761 74.6977V73.0399L16.2273 71.9055L17.4565 70.5094L17.8077 68.7642L18.0711 68.3279L18.4223 68.0662L18.7735 67.6299L19.3003 66.4956L19.9149 65.7975L20.0905 65.623V65.0994L19.8271 64.6632L19.4759 64.4014L19.0369 64.4886L18.7735 64.9249L18.5101 66.0593L18.2467 66.4956L17.3687 66.6701L17.2809 65.4485L17.8077 63.7906L17.4565 61.5219L17.7199 59.2532L17.4565 58.1189L17.1931 57.5953L16.1395 56.1992L15.1737 53.9305L14.3835 52.7089L14.1201 52.0109L14.2079 51.5746L15.2615 50.6147L15.1737 50.2657L13.3299 48.2588L12.6275 47.648L12.2763 47.8225L12.3641 48.0843L13.0665 48.7823L13.3299 49.1314L13.4177 49.5676L13.5055 50.0039L13.5933 50.4402L13.8567 50.7893L13.5933 51.1383L13.0665 49.9167L12.0129 48.346L10.9593 47.2117L9.02773 43.6342V43.1106L10.1691 43.7214L11.3983 46.4264L12.0129 46.6009L12.4519 46.8627L12.8031 46.7754L13.0665 46.5136L13.3299 46.0773L12.8909 45.5538L12.2763 44.3322L11.9251 44.0704L11.6617 43.9832L11.3105 43.7214L11.0471 43.2851L10.9593 42.8488L10.6081 42.1508L9.90573 41.889L9.02773 41.6272L8.41312 41.2782L7.62293 41.4527L7.09612 40.8419L6.30593 39.0968L6.74493 38.6605L7.00833 38.137L7.27173 37.5261L7.35952 36.9153L7.27173 35.781L7.09612 35.1702L7.00833 34.6467L6.56933 34.4721L6.21812 35.083L5.77912 34.1231L5.07673 33.2505L4.37433 31.9417L3.75973 31.0691L3.40852 30.1965L2.96952 29.5857L2.88173 29.0622L2.53052 28.2769V27.7533L2.26712 26.5317L1.74033 25.5719L1.30133 24.3503L1.12573 23.565L2.35493 23.3905L7.09612 23.0414L9.73012 22.4306L10.8715 22.3434L11.8373 22.6924L12.6275 23.3905L14.2079 25.9209L14.7347 26.4445L17.8077 29.1494L20.7051 32.6397L21.5831 33.3378L22.4611 33.9486L23.7781 34.1231L25.2707 34.0359L29.3095 33.3378H30.3631L31.1533 33.7741L31.5045 34.4721L31.6801 35.2575L31.8557 36.9153L32.2069 37.6134L33.0849 37.9624L35.9823 37.4389L44.0599 34.9084L47.6597 34.4721L48.4499 34.5594L49.2401 34.7339L49.9425 35.3447L50.3815 36.0428L50.6449 36.8281L50.8205 37.6134V38.835L50.5571 40.7547L50.3815 41.54L48.2743 46.4264L48.0987 47.299L48.1865 48.0843L48.7133 48.6951L49.4157 49.0441L51.9619 49.8294L53.1033 50.4402L53.8057 50.9638L54.5081 51.5746L55.1227 52.3599L55.4739 53.2325L55.6495 54.105L55.7373 54.9776L55.4739 56.7227L55.1227 58.3806L54.9471 59.1659L55.1227 59.9513L55.5617 60.6493L56.3519 61.1729H56.5275L58.9859 61.5219H59.8639L60.6541 61.4346L61.6199 61.1729H61.7955L62.5857 60.6493L66.4489 57.4208L68.0293 56.461L69.1707 56.1992L70.1365 56.2865L75.9313 58.1189L76.8971 58.0316L77.7751 57.6826L78.7409 56.6355L81.4627 52.4471L82.9553 50.702L93.7547 42.238L99.0227 36.9153L100.164 35.9555L101.218 35.2575L105.608 33.6868L106.486 33.1633L107.188 32.378L107.627 31.2436L107.364 30.371L106.749 29.673L102.623 27.4043L101.832 26.7935L101.13 26.0954L100.867 25.2229L101.306 24.263L102.447 23.0414L104.115 21.7326L109.032 19.0276L115.793 16.0608L116.671 15.3628L117.636 14.403L118.602 12.9196L119.129 11.7852L119.392 10.8254L119.48 8.993L119.392 8.12043L119.217 7.24786L118.251 4.5429L118.163 3.67033L118.339 2.88499L118.866 2.09968L119.568 1.57613L120.446 1.13985L122.904 1.05261L127.821 1.75066L127.47 5.67724L127.558 8.29496L127.821 9.08027L128.26 9.69108L128.699 10.0401L130.104 10.9127L130.894 11.5235L131.684 12.3088L132.387 13.6177L134.406 20.0747L135.372 22.2561L135.723 23.3032L136.865 29.1494L141.694 40.7547L142.133 41.2782L142.659 41.889L143.362 42.4998L144.152 43.0233L145.03 43.3724L145.82 43.6342L147.225 43.8959L153.108 43.8087L161.361 44.5067L163.029 44.8558L163.995 45.2048L164.873 45.6411L165.926 46.5136L166.453 47.3862L166.629 48.2588L166.453 48.9569L165.926 50.702L165.663 54.8903L165.751 55.8502L166.014 56.8973L166.804 58.4679L167.595 59.1659L168.473 59.6895L170.141 60.3003L171.019 60.3876L171.897 60.3003L176.375 59.0787L177.165 58.9042L178.043 58.9914L182.521 59.864L183.311 60.0385L184.013 60.4748L184.628 61.0856V61.2601L183.574 67.2809V68.9388L185.506 82.5509V83.3362L185.33 84.2088L185.067 84.9941L184.716 85.8667L184.277 86.652L183.135 88.1354L182.696 88.9207L182.345 89.706L182.257 90.4913L182.784 97.2974L182.521 99.0425L180.94 104.889V105.674V106.547L181.204 107.419L181.643 108.205L191.564 122.951L187.525 124.522L181.555 128.012L180.238 128.448L179.096 128.535L176.726 127.663L175.672 127.488L174.619 127.401L173.038 127.663L171.809 128.012L169.438 128.972L168.736 129.234L168.121 129.321L165.751 129.408L164.434 129.67L163.38 130.106L162.414 130.717L160.922 132.2L159.868 133.073L152.405 137.174L142.747 145.812L141.518 146.772L139.411 147.907L138.182 148.256L137.128 148.343L136.25 148.081L135.46 147.645L134.757 147.034L134.143 146.161L130.28 138.221L129.577 137.087L127.382 135.254L126.68 134.993L125.714 134.818L124.924 135.08L121.412 137.087L120.534 137.436L119.744 137.697H115.705L114.476 137.872L113.422 138.134L111.578 138.919L110.437 139.268L109.647 139.181L109.208 139.006L108.593 138.57L108.066 137.872L107.627 137.087L106.486 133.771L105.871 132.898L105.081 132.2L103.94 131.677L102.974 131.589L102.096 131.677L101.218 132.026L100.515 132.549L99.9007 133.247L99.5495 133.858L99.2861 134.294L99.1105 134.993L99.0227 135.778L99.1105 136.65L99.4617 138.308L100.076 140.664L100.164 141.886V142.322L99.9007 143.369L97.2667 148.168L96.2131 150.786L95.6863 151.571L94.8083 152.357L93.9303 152.793L93.0523 153.055L89.3647 153.578L88.1355 153.927L87.1697 154.451L86.3795 155.062L83.4821 158.028L82.9553 158.814L82.8675 159.599L83.0431 160.297L83.6577 160.995L84.4479 161.344L87.2575 162.217L87.4331 162.304L87.7843 162.566L88.2233 163.264L88.5745 164.049L88.8379 164.922V165.794L88.3989 169.895L88.4867 170.681L89.1891 173.298L89.2769 174.084L89.0135 177.4L89.1013 178.185L89.2769 179.057L89.7159 179.843L90.2427 180.454L90.6817 180.715L93.5791 182.286L94.5449 183.159L96.9155 186.3L97.7057 186.998L98.5837 187.434L99.6373 187.609H100.515L101.393 187.521L102.184 187.26L102.974 186.823L103.676 186.3L104.115 185.514L104.379 184.729L105.344 180.454L107.715 174.084L108.769 172.339L109.208 171.815L109.559 171.466L110.261 171.117L111.051 171.03H114.563L115.88 170.855L116.934 170.332Z" fill="#00BE99" stroke="#ABABAB" stroke-width="0.5" stroke-linecap="round" stroke-linejoin="round"/>
</svg>
