<svg width="203" height="205" viewBox="0 0 203 205" fill="none" xmlns="http://www.w3.org/2000/svg">
<path d="M23.3627 120.406L23.4505 120.144L23.8895 117.701L24.1529 116.916L24.5919 116.217L25.2065 115.519L25.9967 115.17L26.7869 114.996H29.8599L31.3525 114.821L32.1427 114.56L33.0207 114.211L33.9865 113.6L34.8645 112.727L35.9181 111.418L36.7083 110.546L37.5863 110.022L38.3765 109.935H39.2545L40.9227 110.284L42.7665 110.371L43.7323 110.197L44.6103 109.76L45.4883 109.062L46.2785 108.015L46.6297 107.23L46.8053 106.619L46.2785 92.9198L47.6833 83.4088L47.5955 82.6234L47.3321 81.8381L46.8053 81.4018L46.2785 81.0528L45.4883 80.9656L43.1177 80.7911L42.5031 80.6165L42.2397 80.5293L42.1519 80.442L41.8007 79.5694L40.4837 74.5085L39.3423 71.3673L38.7277 70.1457L38.2009 69.3604L37.4985 68.575L32.5817 64.4739L31.8793 63.6014L31.4403 62.8161L31.0891 61.9435L30.5623 59.5875L30.3867 59.5003L30.2111 59.2385L29.5965 58.8022L22.8359 54.8756L21.9579 54.7884L21.1677 55.0502L19.7629 56.1845L19.2361 56.359L18.8849 55.8355L18.7093 55.1374L18.2703 53.3923L17.7435 51.6471L15.5485 47.2842L15.2851 46.4117L15.1973 45.5391L15.2851 44.6665L15.4607 43.794L16.1631 42.0488L18.4459 38.2968L18.7093 37.5987L18.9727 36.7261L18.8849 35.679L18.5337 34.7192L17.8313 33.9339L17.0411 33.4976L12.6511 32.1887L11.7731 31.8397L10.8951 31.2289L10.1049 30.4436L9.49026 29.6583L8.96347 28.7857L8.61226 27.9131L8.34888 26.9533L8.17326 25.9935L8.08547 24.1611L8.87567 18.4893L8.96347 16.1334L8.87567 14.9991L8.34888 12.4686L7.99767 11.6833L7.64647 11.1597L7.11967 10.5489L6.41726 10.1127L5.80267 9.85087L5.27588 9.76361L4.57347 9.85087L2.11507 10.2872L1.32488 10.1999L0.710265 9.76361L0.534668 9.06557L0.710265 8.36752L1.41267 7.75671L2.20288 7.32042L6.59288 6.27332L16.3387 1.6487L17.1289 1.38693H18.1825L19.3239 1.56143L21.0799 2.34674L24.2407 4.35368L25.3821 4.78996L26.9625 5.05172L27.8405 5.13899L28.7185 4.96446L29.5087 4.7027L36.6205 0.863386L37.3229 0.776123L38.0253 1.03788L38.9911 1.73596L39.5179 2.52127L39.8691 3.21932L40.9227 7.05866L41.6251 8.8038L42.4153 10.2872L44.5225 13.5157L45.4005 14.2137L46.4541 14.8246L48.1223 15.0863L51.8977 15.2608L52.7757 15.3481L53.5659 15.6971L54.1805 16.1334L54.5317 16.7442L54.6195 17.2677V17.4423V17.6168L54.5317 17.9658L54.6195 18.6639L54.8829 19.3619L55.4975 20.06L57.8681 21.5433L58.4827 22.2414L58.7461 23.0267V23.8993L58.6583 24.7719V25.5572L59.0095 26.168L59.7997 26.4298L60.9411 26.168L61.9947 25.4699L65.3311 22.765L65.8579 22.5032L66.7359 22.4159H67.6139L68.8431 22.8522L71.6527 24.1611L72.6185 24.4229L73.4965 24.5101L74.4623 24.0738L74.6379 23.463L74.5501 22.5904L74.3745 21.8051V21.0198L74.8135 20.5835L75.5159 20.6708L76.3939 21.3688L76.8329 22.2414L77.4475 23.8993L78.3255 24.6846L79.7303 25.3827L84.4715 27.1278L89.0371 30.6181L90.5297 31.1416L92.3735 31.4034L96.1489 31.3162L111.953 28.9602L112.743 29.0475L113.621 29.571L114.323 30.0946L115.553 32.0142L116.255 33.7594L116.431 34.6319L116.518 35.679V36.6389L116.167 38.1222L115.992 38.6458L114.675 41.1762L114.148 42.3979L114.236 43.4449L114.587 44.3175L115.377 45.0156L116.167 45.2773L117.045 45.3646L118.801 45.0156H119.767L120.557 45.7136L120.908 46.5862L120.996 47.4588L118.889 61.5945V62.8161L119.065 63.8631L120.206 68.4878L120.908 72.6761L120.557 83.7578L120.733 84.8921L121.172 85.852L121.699 86.6373L122.313 87.2481L122.752 87.5971L123.455 87.9461L124.245 88.2079L125.123 88.2952H126.001L126.879 88.1207L136.273 84.8049L138.205 84.5431L142.683 84.6304L144.351 84.4559L145.141 84.2814L145.844 84.1068L146.37 83.8451L147.073 83.496L147.775 82.9725L148.565 82.2744L151.287 78.7841L152.165 77.9988L153.219 77.388L154.536 76.9517L155.589 76.69L162.087 76.4282L172.71 78.0861L175.959 78.9587L176.925 79.3077L181.929 80.5293L183.598 81.0528L184.3 81.5764L184.915 82.3617L185.178 83.4088L185.354 84.3686L184.563 95.1885L184.739 96.1483L185.09 97.1082L185.793 98.2425L186.671 98.9406L187.549 99.3769L192.465 100.686L193.08 100.947L193.431 101.297L193.519 101.384L194.221 102.518L194.836 104.089L196.855 111.942L197.558 113.6L198.085 114.385L198.699 114.996L201.948 117.439L202.036 118.835L201.509 120.668L201.07 121.889L200.982 122.064L199.226 124.332L198.611 125.292L198.348 125.99V126.601L198.436 126.863L198.963 128.259V129.219L198.875 130.789L198.172 133.931L197.733 140.999L197.821 144.751L192.904 144.053L190.446 144.14L189.568 144.576L188.866 145.1L188.339 145.885L188.163 146.67L188.251 147.543L189.217 150.248L189.392 151.12L189.48 151.993L189.392 153.825L189.129 154.785L188.602 155.92L187.636 157.403L186.671 158.363L185.793 159.061L179.032 162.028L174.115 164.733L172.447 166.041L171.306 167.263L170.867 168.223L171.13 169.095L171.832 169.793L172.623 170.404L176.749 172.673L177.364 173.371L177.627 174.244L177.188 175.378L176.486 176.163L175.608 176.687L171.218 178.257L170.164 178.956L169.023 179.915L163.755 185.238L152.955 193.702L151.463 195.447L148.741 199.635L147.775 200.683L146.897 201.032L145.931 201.119L140.137 199.286L139.171 199.199L138.029 199.461L136.449 200.421L132.586 203.649L131.796 204.173H131.62L130.654 204.435L129.864 204.522H128.986L126.528 204.173H126.352L125.562 203.649L125.123 202.951L124.947 202.166L125.123 201.381L125.474 199.723L125.737 197.978L125.65 197.105L125.474 196.232L125.123 195.36L124.508 194.575L123.806 193.964L123.103 193.44L121.962 192.829L119.416 192.044L118.713 191.695L118.187 191.084L118.099 190.299L118.274 189.426L120.382 184.54L120.557 183.755L120.821 181.835V180.613L120.645 179.828L120.382 179.043L119.943 178.345L119.24 177.734L118.45 177.559L117.66 177.472L114.06 177.908L105.982 180.439L103.085 180.962L102.207 180.613L101.856 179.915L101.68 178.257L101.505 177.472L101.153 176.774L100.363 176.338H99.3097L95.2709 177.036L93.7783 177.123L92.4613 176.949L91.5833 176.338L90.7053 175.64L87.8079 172.149L84.7349 169.444L84.2081 168.921L82.6277 166.39L81.8375 165.692L80.8717 165.343L79.7303 165.431L77.0963 166.041L72.3551 166.39L71.1259 166.565L71.0381 165.692L70.9503 164.558L70.6869 163.685L70.5991 162.9L69.9845 162.289L69.7211 161.853L69.5455 161.155V160.457L68.6675 160.98L68.3163 160.719H67.9651L68.0529 161.417L68.4041 161.766L69.3699 162.115V162.377L68.0529 162.289L67.2627 161.504L67.1749 159.497L65.5067 157.316L64.6287 154.523L64.3653 153.564L64.1897 152.517L63.9263 151.557L63.3117 150.859L62.9605 150.684L62.5215 150.597L61.9069 150.335L61.5557 149.899L61.3801 149.375L61.1167 148.59L60.5899 148.066L59.9753 147.805L59.3607 147.63L58.8339 147.368L58.4827 147.107L58.1315 146.409L57.5169 145.71L57.1657 145.449L56.5511 145.012L55.8487 144.751L55.1463 144.663L54.2683 144.053L53.8293 143.704L53.0391 143.005L52.3367 142.046L51.5465 141.522L50.9319 140.911L49.7905 139.777L49.4393 139.602H49.1759L48.8247 139.69L48.4735 139.951L47.6833 139.341L47.0687 138.817L45.4883 137.857L44.3469 136.985L44.5225 136.461L45.2249 136.025L46.1029 135.85L45.7517 135.501L45.2249 135.676L44.5225 136.025L44.1713 135.501L44.6103 134.803L44.7859 134.193L44.4347 134.018L44.1713 134.28L43.6445 134.367L43.4689 134.803L43.6445 134.978L43.8201 135.414V135.938L43.9079 136.287L43.6445 136.548L42.8543 136.199L41.7129 136.548L39.9569 135.24L39.4301 134.716L37.9375 133.582L37.5863 132.709L37.1473 132.36L36.4449 132.098L35.8303 131.662L35.2157 131.139L34.5133 130.702H33.6353L33.1963 130.615L32.5817 131.051L32.4939 131.662L32.6695 132.447L31.0891 132.535L30.6501 131.924L29.5965 131.4L28.7185 131.662L27.8405 130.789L27.3137 129.83L26.5235 128.695L25.1187 127.561L24.6797 126.165L25.1187 125.292L25.3821 125.38L26.0845 125.903L26.4357 125.205L26.1723 124.507L23.3627 120.406Z" fill="#00BE99" stroke="#ABABAB" stroke-width="0.5" stroke-linecap="round" stroke-linejoin="round"/>
</svg>
