<svg width="132" height="115" viewBox="0 0 132 115" fill="none" xmlns="http://www.w3.org/2000/svg">
<path d="M26.9478 114.439L23.6992 111.996L23.0846 111.385L22.5578 110.6L21.8554 108.942L19.836 101.089L19.2214 99.5182L18.519 98.3838L18.4312 98.2966L18.08 97.9475L17.4654 97.6858L12.5486 96.3769L11.6706 95.9406L10.7926 95.2426L10.0902 94.1082L9.73898 93.1484L9.56337 92.1886L10.3536 81.3686L10.178 80.4088L9.91459 79.3617L9.29998 78.5764L8.59759 78.0529L6.92937 77.5293L1.92479 76.3077L0.958984 75.9587L2.4516 74.6498L3.94418 74.1263L6.22698 73.8645L7.54398 73.5155L13.6022 70.1997L15.007 69.5889L16.2362 69.2399L19.9238 68.8908L20.8018 68.6291L21.4164 68.0183L21.6798 67.4075L21.5042 66.7094L21.3286 66.1859L19.5726 62.9574L19.3092 61.9975L19.2214 61.125L19.397 60.0779L19.9238 59.2053L20.8896 58.1582L21.7676 57.7219L22.5578 57.6347L23.1724 57.8092L26.1576 58.9435L27.1234 59.2053H28.0014L28.7038 59.0308L29.1428 58.3327L29.3184 57.6347V56.9366L29.2306 56.5876L28.5282 53.1845V52.312V51.4394L28.7038 50.6541L29.3184 48.8217L30.1964 47.0765L30.7232 46.4657L31.5134 46.0294H32.3036L33.1816 46.1167L34.1474 46.0294L35.9034 45.5931L36.6936 45.2441L37.2204 44.4588L37.4838 43.5862L38.0984 42.1028L39.152 40.2705L43.6298 35.1223L53.5512 27.0946L58.1168 24.1279L66.809 20.4631L68.126 19.5905L68.9162 18.6306L69.443 17.6708L71.0234 14.2678L72.3404 12.6099L74.1842 10.7775L77.0816 8.94508L91.393 1.61548L93.3246 0.917427L94.2026 0.65564H95.0806L95.8708 0.742902L96.7488 1.09193L97.6268 1.52821L99.0316 2.74984L101.753 5.62932L106.582 9.55589L108.251 10.5157L109.129 10.7775L113.08 11.0393L115.626 11.5628H116.504L117.206 11.3883L117.909 10.952L118.435 10.603L121.333 6.58915L122.913 5.10577L125.372 6.15286L127.04 7.37446L128.62 8.68332L129.41 9.46863L130.025 10.3412L130.464 11.2138L130.815 12.1736L131.079 13.0462L131.166 13.8315V14.4423V14.5296L130.991 15.0531L130.727 15.7512L130.201 16.4492L129.498 17.06L128.62 17.4963L126.776 18.1071L125.811 18.6306L124.845 19.3287L123.177 20.8993L121.772 22.47L118.962 26.4838L118.348 27.0946L117.909 27.2691L116.416 27.6182L115.538 27.8799L114.66 28.4035L113.958 29.3633L113.87 30.3231L114.133 32.2428V34.0752L113.343 39.5724V40.445L113.519 41.3175L113.958 42.1028L114.572 42.9754L117.557 45.9422L118.523 47.0765L121.86 52.661L124.757 56.5876L124.845 56.7621L125.02 58.0709L124.581 59.9906L124.406 61.2122L124.669 62.172L125.723 64.0917L126.25 65.3133L126.689 66.7967L127.04 69.2399V70.7233L126.952 71.9449L126.776 72.8174L126.513 73.6027L126.074 74.2135L125.372 74.4753L124.581 74.5626L121.157 74.3008L112.114 74.9116L104.036 73.8645H102.28L101.402 74.039L100.612 74.3008L99.8218 74.6498L99.2072 75.0861L98.7682 75.5224L98.1536 76.1332L97.1 77.5293L95.6952 80.3216L94.9928 81.4559L94.2026 82.3285L91.4808 84.0736L89.4614 85.9933L88.4956 86.6041L87.003 87.3021L74.3598 90.3561L73.4818 90.7924L72.516 91.4032L68.9162 95.068L65.2286 99.8672L64.7018 101.002L64.5262 102.049L64.7018 102.921L65.053 103.706L66.1066 105.452L66.37 106.411L66.2822 107.546L65.6676 109.029L64.9652 110.076L63.9994 110.862L63.1214 111.298L62.3312 111.472H61.6288L58.6436 110.687L56.8876 110.6L51.444 111.385H49.6002L42.7518 110.687L40.03 109.989L38.3618 109.378L34.323 107.371L33.5328 107.197L32.6548 107.371L31.7768 107.72L30.7232 108.506L30.1964 109.029L27.738 112.869L26.9478 114.439Z" fill="#00BE99" stroke="#ABABAB" stroke-width="0.5" stroke-linecap="round" stroke-linejoin="round"/>
</svg>
