<svg width="221" height="152" viewBox="0 0 221 152" fill="none" xmlns="http://www.w3.org/2000/svg">
<path d="M59.1218 3.13237L63.5118 4.96478L65.7068 5.48831H66.5848L86.691 0.863672L89.4128 0.514648L90.9932 0.601911L92.2224 0.776423L101.441 3.74317L102.758 4.00494H103.724L104.69 3.83043L109.343 2.69608L113.382 2.43431L114.348 2.52157L127.342 5.48831L129.098 6.18637L129.889 6.70992L130.767 7.49523L135.332 12.9924L136.474 13.865L137.791 14.7376L139.634 15.4356L141.039 15.6102L142.268 15.5229L143.41 15.2611L144.463 14.8248L147.536 13.167L148.59 12.6434L149.731 12.4689H151.048L151.839 12.9052L152.19 13.2542L152.278 13.6032L152.453 16.8318L152.541 17.3553L152.804 18.3151L153.331 19.624L154.209 20.5838L155.526 21.4564L156.58 21.7182L157.546 21.8054L161.321 21.4564L162.638 21.5437L163.692 21.8927L167.73 23.9869L169.223 24.5104L170.189 24.5977L171.067 24.4231L172.559 23.7251L176.949 20.8456L178.003 20.4093L179.32 20.322L180.374 20.6711L181.252 21.3691L181.866 22.2417L188.276 33.7597L191.436 42.1364L192.753 43.9688L193.719 44.8413L194.685 45.6267L196.002 46.2375L197.056 46.5865L208.733 48.4189L210.05 48.8552L211.718 49.815L212.596 50.4258L218.918 56.0975L219.884 57.2319L220.41 58.4535L218.215 59.326H218.128L217.601 59.7623L216.372 60.8094L215.406 62.1183L214.352 63.7762L213.825 65.1723L213.386 66.4812L213.299 67.2665L213.211 68.139L213.299 69.0989L213.65 70.5822L213.913 71.1058L212.333 72.5892L209.435 76.603L208.909 76.952L208.206 77.3883L207.504 77.5628H206.626L204.08 77.0393L200.129 76.7775L199.251 76.5157L197.582 75.5559L192.753 71.6293L190.032 68.7498L188.627 67.5282L187.749 67.0919L186.871 66.7429L186.081 66.6557H185.203L184.325 66.9174L182.393 67.6155L168.082 74.9451L165.184 76.7775L163.34 78.6099L162.023 80.2678L160.443 83.6708L159.916 84.6307L159.126 85.5905L157.809 86.4631L149.117 90.1279L144.551 93.0946L134.63 101.122L130.152 106.27L129.098 108.103L128.484 109.586L128.22 110.459L127.694 111.244L126.903 111.593L125.147 112.029L124.182 112.117L123.304 112.029H122.513L121.723 112.466L121.196 113.077L120.318 114.822L119.704 116.654L119.528 117.439V118.312V119.185L120.231 122.588L120.318 122.937V123.635L120.143 124.333L119.704 125.031L119.001 125.205H118.123L117.158 124.944L114.172 123.809L113.558 123.635L112.768 123.722L111.89 124.158L110.924 125.205L110.397 126.078L110.221 127.125L110.309 127.998L110.573 128.957L112.329 132.186L112.504 132.709L112.68 133.407L112.416 134.018L111.802 134.629L110.924 134.891L107.236 135.24L106.007 135.589L104.602 136.2L98.544 139.515L97.227 139.865L94.9442 140.126L93.4516 140.65L91.959 141.959L88.7104 141.086L78.0866 139.428L71.5894 139.69L70.5358 139.952L69.2188 140.388L68.1652 140.999L67.2872 141.784L64.5654 145.274L63.7752 145.973L63.0728 146.496L62.3704 146.845L61.8436 147.107L61.1412 147.281L60.351 147.456L58.6828 147.63L54.205 147.543L52.2734 147.805L42.8788 151.121L42.0008 151.295H41.1228L40.2448 151.208L39.4546 150.946L38.7522 150.597L38.3132 150.248L37.6986 149.637L37.1718 148.852L36.7328 147.892L36.5572 146.758L36.9084 135.676L36.206 131.488L35.0646 126.863L34.889 125.816V124.595L36.9962 110.459L36.9084 109.586L36.5572 108.714L35.767 108.016H34.8012L33.0452 108.365L32.1672 108.277L31.377 108.016L30.5868 107.318L30.2356 106.445L30.1478 105.398L30.6746 104.176L31.9916 101.646L32.1672 101.122L32.5184 99.6389V98.6791L32.4306 97.632L32.255 96.7594L31.5526 95.0143L32.1672 94.578L32.7818 93.7054L33.4842 92.3093L35.6792 85.5032L36.8206 83.2345L38.5766 80.8786L43.23 76.8648L43.9324 76.0795L44.547 75.2069L44.8982 74.3343L44.986 73.4617L44.8104 72.5892L44.0202 71.6293L43.1422 70.844L38.5766 68.4008L37.084 67.441L36.5572 66.8302L35.9426 66.0449L35.5036 65.2596L31.377 48.5934L31.0258 47.6336L30.499 46.761L28.304 44.5796L23.8262 40.9148L21.5434 39.7804L20.402 38.9951L19.524 38.1225L19.3484 37.948L18.5582 36.9882L17.1534 36.2029L15.0462 35.4176L2.84197 32.5381L1.96397 32.189L1.34938 31.7528L0.646973 30.8802L4.77357 26.3428L5.65157 25.732L6.61738 25.1212L20.9288 18.3151L27.5138 16.4827L41.5618 8.54232L55.961 2.60882L56.7512 2.52157L59.1218 3.13237Z" fill="#00BE99" stroke="#ABABAB" stroke-width="0.5" stroke-linecap="round" stroke-linejoin="round"/>
</svg>
