<svg width="214" height="189" viewBox="0 0 214 189" fill="none" xmlns="http://www.w3.org/2000/svg">
<path d="M11.1338 5.16563L14.3824 5.07837L15.6116 4.81659L16.9286 4.90385L20.0016 5.68917L25.4452 6.21271L26.411 6.0382L27.0256 5.68917L28.3426 4.38031L29.6596 3.76951L31.24 3.24596L39.0542 1.76259L44.0588 1.41356L47.044 0.890015H49.5024L56.9654 2.72242L57.8434 3.15871L59.5116 4.29306L60.7408 5.42739L70.4866 18.0797L70.75 18.3415L71.0134 18.516L72.5938 19.0395H73.4718H74.0864L78.3008 17.4689L87.3442 15.462H90.3294L92.5244 15.811L98.3192 17.7307L101.48 18.3415L107.977 18.7778L109.031 18.516L109.909 18.0797L110.523 17.2944L110.962 16.4218L112.543 12.4952L112.982 11.6227L113.509 10.7501L114.299 10.052L116.845 8.4814L119.216 6.21271L120.006 5.95094L120.884 6.12545L121.586 6.649L121.937 7.52157L122.113 8.4814L121.762 15.3747L121.85 19.214L122.113 21.6573L122.552 23.4897L123.167 24.973L123.606 25.8456L124.22 26.7182L124.835 27.5035L127.381 29.5977L129.137 30.6448L133.264 32.0409L135.634 32.5644L143.185 33.3497L144.59 33.2625L145.819 32.8262L146.785 32.3899L148.014 32.0409L148.892 32.2154L150.209 33.0007L150.999 33.2625L151.702 33.3497H153.37L154.423 35.8802L155.038 36.5783L155.828 37.1018L156.794 37.189L157.672 37.1018L158.638 36.6655L162.589 34.6586L163.73 34.3968L165.047 34.135L166.013 34.2223L166.628 34.3968L167.154 34.6586L168.647 35.8802L169.349 36.7528L169.964 37.189L170.842 37.5381L183.046 40.4176L185.153 41.2029L186.558 41.9882L187.348 42.948L187.524 43.1225L188.402 43.9951L189.543 44.7804L191.826 45.9148L196.304 49.5796L198.499 51.761L199.026 52.6336L199.377 53.5934L203.504 70.2596L203.943 71.0449L204.557 71.8302L205.084 72.441L206.577 73.4008L211.142 75.844L212.02 76.6293L212.81 77.5892L212.986 78.4617L212.898 79.3343L212.547 80.2069L211.932 81.0795L211.23 81.8648L206.577 85.8786L204.821 88.2346L203.679 90.5032L201.484 97.3093L200.782 98.7054L200.167 99.578L199.553 100.014L198.323 98.0946L197.621 97.5711L196.743 97.0475L195.953 96.9603L180.149 99.3162L176.373 99.4035L174.53 99.1417L173.037 98.6182L168.471 95.1279L163.73 93.3828L162.325 92.6847L161.447 91.8994L160.833 90.2415L160.394 89.3689L159.516 88.6708L158.813 88.5836L158.374 89.0199V89.8052L158.55 90.5905L158.638 91.4631L158.462 92.0739L157.496 92.5102L156.618 92.4229L155.653 92.1611L152.843 90.8523L151.614 90.416H150.736L149.858 90.5032L149.331 90.765L145.995 93.47L144.941 94.1681L143.8 94.4298L143.009 94.1681L142.658 93.5573V92.7719L142.746 91.8994V91.0268L142.483 90.2415L141.868 89.5434L139.497 88.0601L138.883 87.362L138.619 86.6639L138.532 85.9659L138.619 85.6168V85.4423V85.2678L138.532 84.7443L138.18 84.1335L137.566 83.6972L136.776 83.3482L135.898 83.2609L132.122 83.0864L130.454 82.8246L129.4 82.2138L128.522 81.5158L126.415 78.2872L125.625 76.8039L124.923 75.0587L123.869 71.2194L123.518 70.5213L122.991 69.736L122.025 69.0379L121.323 68.7762L120.62 68.8634L113.509 72.7028L112.718 72.9645L111.84 73.139L110.962 73.0518L109.382 72.79L108.241 72.3537L105.08 70.3468L103.324 69.5615L102.182 69.387H101.129L100.339 69.6488L90.5928 74.2734L86.2028 75.3205L85.4126 75.7568L84.7102 76.3676L84.5346 77.0656L84.7102 77.7637L85.3248 78.2L86.115 78.2872L88.5734 77.8509L89.2758 77.7637L89.8026 77.8509L90.4172 78.1127L91.1196 78.549L91.6464 79.1598L91.9976 79.6833L92.3488 80.4687L92.8756 82.9991L92.9634 84.1335L92.8756 86.4894L92.0854 92.1611L92.1732 93.9935L92.3488 94.9534L92.6122 95.9132L92.9634 96.7858L93.4902 97.6583L94.1048 98.4437L94.895 99.229L95.773 99.8398L96.651 100.189L101.041 101.498L101.831 101.934L102.534 102.719L102.885 103.679L102.973 104.726L102.709 105.599L102.446 106.297L100.163 110.049L99.4606 111.794L99.285 112.667L99.1972 113.539L99.285 114.412L99.5484 115.284L101.743 119.647L102.27 121.392L102.709 123.137L102.885 123.836L103.236 124.359L103.763 124.185L105.168 123.05L105.958 122.788L106.836 122.876L113.596 126.802L114.211 127.239L114.387 127.5L114.562 127.588L115.089 129.944L115.44 130.816L115.879 131.601L116.582 132.474L121.498 136.575L122.201 137.36L122.728 138.146L123.342 139.367L124.484 142.509L125.801 147.57L126.152 148.442L126.24 148.529L126.503 148.617L127.118 148.791L129.488 148.966L130.278 149.053L130.805 149.402L131.332 149.838L131.595 150.624L131.683 151.409L130.278 160.92L130.805 174.619L130.63 175.23L130.278 176.015L129.488 177.062L128.61 177.761L127.732 178.197L126.766 178.371L124.923 178.284L123.254 177.935H122.376L121.586 178.022L120.708 178.546L119.918 179.418L118.864 180.727L117.986 181.6L117.021 182.211L116.143 182.56L115.352 182.821L113.86 182.996H110.787L109.997 183.17L109.206 183.52L108.592 184.218L108.153 184.916L107.889 185.701L107.45 188.144L107.363 188.406L104.992 184.916L102.621 181.687L101.568 180.204L101.48 179.069L101.656 178.72V178.371L101.568 177.935L101.48 177.673L101.217 177.499L100.69 178.022H100.339L99.6362 177.673L99.1972 176.975L98.4948 175.492H99.4606L100.339 175.666H101.217L102.095 175.317L102.621 174.619V172.525L103.499 170.78L103.412 169.907L102.621 168.162L102.446 167.115L102.621 164.672V163.712L102.358 162.84L102.095 162.054L101.656 161.269L100.865 160.396L100.426 159.96L100.075 159.698L99.724 159.349L99.3728 158.564L99.0216 158.302L98.2314 157.691L97.529 156.819L96.9144 155.946L96.3876 154.986L96.2998 154.55L96.212 153.59L96.1242 153.241L95.9486 152.892L95.334 152.281L95.1584 151.845L95.773 151.409L95.2462 150.449L93.578 148.704L93.3146 148.18L92.7 146.435L92.4366 146.086L91.9976 145.737L91.7342 145.563V145.301V144.777L91.6464 144.516L91.2952 144.079L90.7684 142.858L90.505 142.421L89.9782 142.072L88.8368 141.549L88.3978 141.287L86.9052 138.931L85.9394 137.709L85.1492 137.622L85.0614 138.146L85.3248 138.582L85.4126 139.018L84.9736 139.28L84.5346 139.106L83.3932 138.32L82.7786 138.146L82.4274 137.884L81.6372 136.837L81.3738 136.401L81.286 136.139L81.3738 135.266L81.286 135.004L80.847 134.917L80.5836 134.655L80.1446 133.608L80.0568 132.649L80.408 131.689L81.1982 130.816L81.725 129.944L81.9006 128.809L81.725 127.588L81.3738 126.628L80.4958 125.668L79.2666 125.057L77.9496 124.708L76.7204 124.621L75.3156 124.097L74.4376 122.963L71.9792 117.204L71.1012 115.808L69.5208 113.539L66.7112 106.646L63.726 101.323L61.8822 98.9672L59.6872 97.0475L58.7214 95.9132L58.1068 94.0808L56.9654 92.0739L56.1752 89.4562L55.5606 89.6307L55.0338 89.1944L54.068 87.711L51.6096 85.5296L48.6244 81.603L47.5708 79.5088L47.3952 79.1598V78.7235L47.483 78.3745L47.8342 77.7637L47.922 77.4146L47.7464 76.8911L46.7806 75.5822L43.6198 71.7429L41.8638 70.5213L41.337 70.085L40.459 69.0379L39.4054 67.3801L38.264 66.2457L36.8592 63.5407L36.4202 62.4936L36.3324 61.6211L36.2446 60.0505L36.069 59.2651L35.7178 58.7416L34.4886 57.3455L33.7862 56.2111L32.8204 53.6807L32.0302 52.5463L31.679 52.2846L30.8888 52.0228L30.6254 51.8483L30.4498 51.4992L30.2742 50.9757L29.8352 50.1031L29.6596 48.9688L29.3084 48.358L27.3768 46.0893L26.7622 45.0422L26.411 44.6932L25.7964 44.3441L23.9526 42.948V43.2098H23.6892L23.338 42.6863L23.777 42.25L24.655 41.8137L25.2696 41.4647L25.7086 41.6392L25.6208 41.3774L25.2696 40.7666L25.094 40.6793L24.0404 40.4176L23.6892 40.2431H23.4258V40.5921H23.2502L23.0746 40.3303L22.8112 39.9813L22.5478 39.8068L22.2844 39.7195H21.582H21.3186L20.7918 39.196L19.0358 37.9744L18.6846 38.2361H18.2456H17.8066L17.9822 38.4106L18.07 38.6724L18.2456 38.8469L17.8944 38.5852L17.4554 38.3234L17.0164 38.1489L16.5774 38.4106L16.2262 38.6724L14.997 39.0214L14.7336 39.196L14.4702 39.3705L14.3824 39.7195H14.119V39.3705H13.8556L13.3288 39.545L12.5386 39.3705H11.8362L11.3094 39.9813L11.1338 39.8068L10.9582 39.7195V39.3705H11.3094V39.1087L11.1338 38.7597L11.3094 38.5852L11.6606 38.3234L12.0118 38.2361L11.6606 38.0616H11.3094H10.8704L10.5192 38.2361V38.4979H10.7826V38.8469L10.3436 38.9342L10.0802 39.2832L9.72898 39.9813L9.55337 39.8068H9.46558L9.37777 39.7195H9.20218L9.37777 39.4577L9.55337 39.196L9.90458 39.0214L10.2558 38.8469V38.6724V38.4979V38.2361H9.72898L9.28998 38.3234L9.02658 38.5852L8.93877 39.1087L8.76318 38.9342H8.67537L8.58758 39.0214L8.41197 39.1087V38.9342V38.6724V38.4979H8.23637V38.8469H7.88518L7.70958 38.4979L7.53397 38.2361L7.35837 38.3234L7.09497 38.4979L6.74377 38.2361L6.65597 38.1489L6.48037 37.7998L6.30477 37.6253L6.04137 37.1018L5.95358 37.189L5.86577 37.2763L5.69018 37.4508L5.51458 37.6253L5.07558 37.2763L4.89997 37.4508V37.8871L4.72437 38.2361L4.46097 38.4106L3.93418 38.6724L3.75858 38.8469V39.1087L4.54877 39.7195V39.9813L4.28537 40.0685H4.19758L4.10977 40.1558L4.02197 40.2431L3.75858 39.9813L3.58297 40.7666L3.49518 41.2901L3.23177 41.6392L2.44158 41.7264L2.52937 41.5519H2.61718L2.70497 41.4647L2.44158 41.1156L2.26597 40.5048L2.17818 39.9813V38.9342L1.91477 38.6724L0.948975 39.0214L1.12458 38.4979L0.948975 38.2361L1.47577 37.4508L1.82697 37.1018L2.17818 36.9273V36.7528L2.44158 36.6655L2.70497 36.3165L2.96837 36.2292L2.70497 35.8802L2.79277 35.7057L2.96837 35.5312L3.14397 35.3566H3.49518V35.5312H3.40737H3.31958L3.23177 35.6184L3.58297 35.7929L3.93418 35.8802L4.10977 35.7929L4.28537 35.3566H4.02197V35.0076L3.75858 34.7458L3.84637 34.4841L4.10977 34.2223L4.54877 34.135V33.8733L4.37318 33.437L4.72437 31.5173L4.89997 31.6046L5.16337 31.6918L5.33897 31.7791L5.25118 31.6918L5.33897 31.2556L5.07558 31.3428L4.98777 31.4301L4.72437 31.2556L5.51458 30.4702L6.30477 29.0741L6.91937 27.5035L7.27058 25.4966L8.06077 24.3622L8.32418 23.1406L8.58758 22.3553L9.64118 20.5229L9.37777 18.6032L9.28998 16.5963L8.67537 14.5894L9.37777 11.9717L9.90458 10.5756L10.5192 9.44123V9.17946H10.2558L10.8704 8.13237L10.9582 7.60882L10.7826 7.08529V6.82351L11.2216 5.51465L11.1338 5.16563ZM93.9292 151.845L94.2804 152.194L94.456 152.369H94.3682L94.1926 152.281H93.9292V152.456L94.1048 152.718L93.7536 152.63L93.0512 152.194L92.7878 151.758L92.8756 151.409H92.5244L92.0854 151.583L91.822 151.234L91.6464 150.624H91.2952L90.8562 150.885L90.7684 150.624L91.0318 149.838L91.383 149.402H91.9098L92.4366 149.489L92.8756 149.751L93.2268 150.624L93.4902 150.536L93.578 150.274L93.6658 150.449L93.9292 151.845ZM90.6806 151.932L91.2952 151.845L91.383 152.02L90.7684 152.456L90.4172 152.63L90.066 153.154L89.627 153.852L89.1002 154.288L88.31 153.765L87.6076 152.979L86.9052 152.456L85.3248 150.798L85.237 150.711L85.1492 150.449V150.274L85.237 150.187V150.013L84.798 149.576L84.359 148.966L84.4468 148.617L84.798 148.704L85.1492 149.053L85.8516 149.925L86.2028 150.187L86.9052 150.536L88.2222 151.147L88.8368 151.322H89.3636L89.7148 151.583L89.8904 151.845H89.1002L88.9246 152.456L89.2758 152.892L89.7148 152.805L90.1538 152.281L90.6806 151.932ZM87.1686 147.133L86.8174 146.959L86.2906 146.522L86.3784 145.912L86.9052 145.563L87.432 145.65L87.7832 146.086V146.61L87.432 146.959L87.1686 147.133ZM84.9736 148.617L84.5346 148.268H84.359L84.1834 148.18L84.0078 147.919V147.482L83.6566 147.395L83.1298 147.308L83.042 147.133L83.2176 147.22L83.1298 146.959L82.7786 146.522L82.2518 146.173H81.5494L81.286 146.435L81.1104 146.522L80.7592 146.61L80.847 146.261L81.1982 145.65L81.8128 145.563L82.5152 145.737L84.359 147.046L84.5346 147.308L84.798 147.831L85.3248 148.18L85.9394 148.355L86.8174 148.878L88.1344 150.013L88.4856 150.362L88.3978 150.536L88.2222 150.711L88.31 150.885L88.1344 150.711L87.5198 150.274L86.993 150.013L86.6418 149.838L86.4662 149.576L86.2906 149.14L85.9394 148.966L85.676 149.053L85.3248 148.966L84.9736 148.617ZM89.1002 146.435V145.214L89.0124 144.952V144.516L89.2758 144.166L89.627 144.079L89.9782 144.166L90.1538 144.603V144.952L90.066 145.301H89.8904L89.627 145.126V145.214L89.7148 145.475V145.65H89.627L89.8904 146.173L90.1538 147.308L89.9782 147.657L89.5392 147.046L89.2758 146.871L89.1002 146.435ZM80.847 145.475V145.737L80.5836 146.173L80.3202 146.435L80.0568 146.261L79.53 145.912L76.5448 144.341L75.6668 144.166L75.4034 144.777L75.0522 144.603L74.3498 143.905L73.823 143.294L73.6474 142.421L73.9108 141.723L74.8766 140.763L75.3156 140.24L75.579 140.065L75.6668 140.327L75.4034 140.763L74.7888 141.723L74.8766 142.072L75.14 142.421L75.4034 142.683H75.579L75.7546 142.77L76.018 143.032L76.2814 143.207L76.6326 143.294L77.5984 144.341L78.0374 144.69H78.5642L78.9154 144.603L79.0032 144.777V145.039L79.1788 145.388L79.53 145.563L79.8812 145.475L79.7934 145.388V145.214L79.969 145.039L80.3202 145.126L80.847 145.475ZM75.579 138.844V138.495L75.4912 137.622L75.579 135.877L76.1936 134.481L77.0716 133.521L77.335 133.434L76.896 133.957L76.457 134.568L76.1058 135.266L76.018 136.139L76.3692 136.837L77.0716 137.535L77.335 137.622L77.6862 137.709L77.5984 137.971L77.335 138.495L77.1594 139.106L77.2472 139.28V139.542L77.5984 139.804L78.0374 139.629L78.1252 139.716L77.9496 140.065L77.5984 140.327L77.0716 140.24L76.2814 139.629L75.9302 139.28L75.579 138.844Z" fill="#00BE99" stroke="#ABABAB" stroke-width="0.5" stroke-linecap="round" stroke-linejoin="round"/>
</svg>
