<svg width="157" height="104" viewBox="0 0 157 104" fill="none" xmlns="http://www.w3.org/2000/svg">
<path d="M156.004 0.977051L144.063 97.6581H143.976L143.185 98.1816L142.395 98.6179L141.605 99.0542L141.342 99.316L139.673 100.276L135.02 102.981L134.142 103.33H133.879H133.001H132.21H131.245H130.367H130.279H129.489H128.698H127.908V103.417L127.645 103.33H127.118L126.679 103.068L123.43 98.6179L120.709 94.6913L118.25 91.2883L116.845 90.503L108.417 91.6373L102.095 92.5099L92.9638 91.5501L85.7642 90.8521L76.3696 89.8922L68.292 89.0196L66.6238 88.4961L60.39 84.9185L58.2828 84.4822L51.8734 84.395H50.9954H50.2052H46.2542L38.6156 84.3078H38.5278L37.8254 84.4822L35.5426 85.3548L35.4548 85.4421H34.3134L31.7672 84.9185L29.3966 84.8313L25.7968 85.1803L22.8994 85.8784L22.1092 85.9656L20.5288 85.4421L19.7386 85.3548L19.2118 85.7911L18.8606 86.4019L18.685 86.751L18.0704 87.449L17.368 87.798L16.4022 87.6235L14.9096 86.9255L14.295 86.8382L13.5048 87.2745H13.417L12.8902 87.9725L12.7146 88.3216L12.3634 88.7579L11.8366 89.2814L10.8708 89.4559L10.4318 89.3687L10.2562 89.1941L10.0806 89.0196L9.9928 88.7579L10.0806 87.9725V87.8853V87.5362L9.81719 87.3618L8.93919 87.7108H8.2368L7.18319 87.6235L6.74419 87.5362L5.33939 87.7108H4.637L3.93461 87.449L3.05661 86.8382L2.35419 86.2274L0.422607 84.0459V82.8244L1.47619 78.8105L1.38839 76.7164L0.598191 74.3604L0.510386 73.4006V72.2662L0.861607 70.6956L1.82739 61.9699L1.73961 60.312L1.38839 58.6541L0.773802 56.9089L0.422607 55.1638V54.204L0.773802 53.0696L1.564 51.5863L2.5298 50.3647L8.6758 43.9076L12.8902 40.2428L14.1194 39.0212L14.5584 38.3232L14.9974 37.5378L15.8754 35.3564L16.4022 34.3966L17.2802 33.524L18.1582 32.9132L19.0362 32.5641L21.6702 32.0406L23.3384 31.4298L25.0944 30.5572L26.7626 29.4229L27.465 28.7249L27.9918 28.0268L28.5186 27.2415L28.8698 26.1944L29.1332 25.1473L29.221 23.6639V22.2678L29.0454 20.5226L27.7284 15.4617V14.5019L27.9918 13.4548L28.9576 11.9714L29.8356 11.1861L32.294 9.87725L32.9086 9.44096L33.2598 8.91744L33.5232 8.04487L33.6988 6.73601V1.6751L44.2348 8.30663L46.9566 9.61549L48.976 10.4008L52.5758 11.2734L62.3216 11.8842L151.087 2.37315L156.004 0.977051Z" fill="#00BE99" stroke="#ABABAB" stroke-width="0.5" stroke-linecap="round" stroke-linejoin="round"/>
</svg>
