<svg width="120" height="143" viewBox="0 0 120 143" fill="none" xmlns="http://www.w3.org/2000/svg">
<path d="M119.699 59.6752V64.7361L119.523 66.045L119.26 66.9175L118.909 67.4411L118.294 67.8773L115.836 69.1862L114.958 69.9715L113.992 71.4549L113.728 72.502V73.4618L115.045 78.5227L115.221 80.2679V81.664L115.133 83.1474L114.87 84.1945L114.519 85.2416L113.992 86.0269L113.465 86.725L112.763 87.423L111.094 88.5573L109.338 89.4299L107.67 90.0407L105.036 90.5642L104.158 90.9133L103.28 91.5241L102.402 92.3967L101.875 93.3565L100.997 95.5379L100.558 96.3232L100.119 97.0213L98.8902 98.2429L94.6758 101.908L88.5298 108.365L87.564 109.586L86.7738 111.07L86.4226 112.204V113.164L86.7738 114.909L87.3884 116.654L87.7396 118.312L87.8274 119.97L86.8616 128.696L86.5104 130.266V131.401L86.5982 132.361L87.3884 134.716L87.4762 136.811L86.4226 140.824V142.046L85.7202 141.261L84.1398 140.301L83.2618 139.952L81.3302 139.079L80.7156 138.905H79.3986L78.6962 138.73L77.906 138.818L77.028 139.167L75.1842 140.301L74.0428 138.556L72.0234 135.589L71.4088 134.804L70.6186 134.106L67.7212 133.059L67.0188 132.535L66.4042 131.75L65.2628 129.219L64.736 128.434L63.7702 127.474L60.785 125.118L60.1704 124.071L59.9948 123.111L60.0826 121.453L59.907 120.755L59.3802 120.144L57.8876 119.883H57.6242L55.8682 120.93L54.2878 122.064L53.5854 122.762L53.0586 123.548L52.2684 125.118L50.5124 131.662L50.1612 132.448L49.6344 132.971L48.932 133.32H48.1418L47.3516 132.971L46.3858 132.361L42.8738 128.696L42.2592 127.736L41.7324 126.776L41.469 125.991L41.03 125.118L40.2398 124.42L39.1862 123.809L38.3082 123.635L32.3378 123.548L31.4598 123.286L30.6696 122.849L29.8794 121.89L29.4404 121.104L29.0014 119.621L28.738 119.272L28.1234 118.574L27.1576 118.05L26.2796 117.789L25.4894 117.701L22.9432 118.05L22.153 117.876L21.5384 117.265L21.1872 116.218V115.258V114.386L21.9774 109.674V108.801L21.8018 108.103L21.4506 107.492L19.958 107.056L15.6558 107.405L16.9728 102.344L17.1484 101.297V100.25L16.885 99.0282L14.251 91.175L13.812 90.3898L13.1974 89.779L12.495 89.3427L11.7048 89.0809L10.0366 88.7319L8.45616 88.6446H4.32958L3.53936 88.4701L2.83697 88.0338L2.13458 87.423L1.69558 86.6377L1.43216 85.7651L1.16877 84.9798L0.993164 83.3219L1.25658 74.0726L1.34436 73.2873L1.69558 72.9383L2.31016 73.2001L2.92477 73.7236L3.71497 74.0726L4.41736 74.1599L5.11977 73.8109L7.05136 72.3275L8.71958 71.3676L9.59758 71.1059L10.3878 70.9314H11.2658L15.4802 71.3676H16.007L16.5338 71.1932L17.2362 70.9314L17.9386 70.4078L18.4654 69.7098L18.8166 68.9244L20.1336 64.8233V63.8635L19.8702 62.9037L18.2898 60.1987L18.1142 59.4134L18.0264 58.3663V57.4065L19.1678 52.171L19.2556 51.3857V50.6004L18.9922 49.7278L18.5532 48.9426L17.9386 48.2445L17.4996 47.8955L16.9728 47.6337L16.1826 47.5464L14.6022 47.6337L12.934 48.3317L16.7094 40.0423L17.324 38.0354L17.4996 35.2432L17.8508 34.1088L18.3776 33.0617L19.2556 32.2764L23.7334 29.1351L24.5236 28.3498L25.4016 27.1282L25.665 26.1684L25.4894 25.2086L25.0504 24.5105L24.0846 23.5507L23.8212 22.3291L23.7334 21.282L25.5772 15.0867L26.2796 16.2211L30.1428 24.1615L30.7574 25.034L31.4598 25.6448L32.25 26.0811L33.128 26.3429L34.1816 26.2557L35.4108 25.9066L37.518 24.7723L38.7472 23.8124L48.4052 15.174L55.8682 11.0729L56.9218 10.2003L58.4144 8.71692L59.3802 8.1061L60.4338 7.66982L61.7508 7.40806L64.1214 7.32082L64.736 7.23353L65.4384 6.97177L67.809 6.01196L69.0382 5.66291L70.6186 5.40115L71.6722 5.48839L72.7258 5.66291L75.0964 6.53548L76.2378 6.44825L77.5548 6.01196L83.5252 2.52167L87.564 0.95105L93.0954 5.92467L95.1148 8.36792L96.344 10.2875L98.6268 13.2543L101.7 16.7446L102.227 17.7044L102.49 18.577L102.578 19.2751L102.49 20.0604V20.2349L102.227 21.0202L101.875 21.7183L99.6804 25.2958L98.978 26.7792L97.4854 33.6725V34.6323L97.7488 35.9412L98.3634 36.901L100.471 39.4315L104.158 45.5395L119.084 59.2389L119.699 59.6752Z" fill="#00BE99" stroke="#ABABAB" stroke-width="0.5" stroke-linecap="round" stroke-linejoin="round"/>
</svg>
