<svg width="318" height="289" viewBox="0 0 318 289" fill="none" xmlns="http://www.w3.org/2000/svg">
<path d="M-113.237 333.49C-110.072 339.73 -106.551 345.792 -102.807 351.676C-89.7476 372.001 -73.5676 390.141 -54.9364 405.385C-15.5791 437.656 34.6984 457 89.5223 457C215.484 457 318 354.439 318 228.522C318 102.605 215.484 0 89.5223 0C34.7875 0 -15.5345 19.3443 -54.9364 51.6147C-79.0055 71.2265 -98.9741 95.7413 -113.371 123.465C-129.595 154.621 -138.822 190.101 -138.955 227.542C-138.955 227.898 -139 228.166 -139 228.478C-139 266.32 -129.684 301.977 -113.237 333.446V333.49ZM3.45319 123.465C26.8982 104.255 56.8954 92.6658 89.5223 92.6658C164.404 92.6658 225.379 153.596 225.379 228.478C225.379 303.359 164.404 364.334 89.5223 364.334C56.8954 364.334 26.8537 352.745 3.45319 333.535C-26.9006 308.574 -46.334 270.777 -46.334 228.522C-46.334 186.268 -26.9006 148.47 3.45319 123.51V123.465Z" fill="#2A32D3"/>
</svg>
