<svg width="36" height="33" viewBox="0 0 36 33" fill="none" xmlns="http://www.w3.org/2000/svg">
<path id="Star" d="M16.0177 1.16016C16.2789 0.644532 16.6599 0.300782 17.1605 0.128906C17.6612 -0.0429688 18.1618 -0.0429688 18.6625 0.128906C19.1631 0.300782 19.5441 0.644532 19.8053 1.16016L24.05 9.66797L33.5842 11.0215C34.1502 11.1074 34.5964 11.3652 34.9229 11.7949C35.2494 12.2246 35.4018 12.6973 35.38 13.2129C35.3583 13.7285 35.1515 14.1797 34.7597 14.5664L27.8376 21.2051L29.4701 30.6152C29.5572 31.1309 29.4592 31.6143 29.1763 32.0654C28.8933 32.5166 28.4906 32.8066 27.9682 32.9355C27.4457 33.0645 26.9451 33 26.4662 32.7422L17.9115 28.3594L9.35681 32.7422C8.87793 33 8.37727 33.0645 7.85485 32.9355C7.33242 32.8066 6.92972 32.5166 6.64674 32.0654C6.36376 31.6143 6.26581 31.1309 6.35288 30.6152L7.98545 21.2051L1.06334 14.5664C0.671519 14.1797 0.464726 13.7285 0.442959 13.2129C0.421191 12.6973 0.573565 12.2246 0.900079 11.7949C1.22659 11.3652 1.67283 11.1074 2.23879 11.0215L11.773 9.66797L16.0177 1.16016Z" fill="#F1AB23"/>
</svg>
