<svg width="38" height="33" viewBox="0 0 38 33" fill="none" xmlns="http://www.w3.org/2000/svg">
<path id="Star" d="M16.8124 1.16016C17.0736 0.644532 17.4545 0.300782 17.9552 0.128906C18.4559 -0.0429688 18.9565 -0.0429688 19.4572 0.128906C19.9578 0.300782 20.3388 0.644532 20.6 1.16016L24.8447 9.66797L34.3789 11.0215C34.9449 11.1074 35.3911 11.3652 35.7176 11.7949C36.0441 12.2246 36.1965 12.6973 36.1747 13.2129C36.153 13.7285 35.9462 14.1797 35.5543 14.5664L28.6322 21.2051L30.2648 30.6152C30.3519 31.1309 30.2539 31.6143 29.9709 32.0654C29.688 32.5166 29.2853 32.8066 28.7628 32.9355C28.2404 33.0645 27.7398 33 27.2609 32.7422L18.7062 28.3594L10.1515 32.7422C9.6726 33 9.17195 33.0645 8.64952 32.9355C8.1271 32.8066 7.7244 32.5166 7.44142 32.0654C7.15844 31.6143 7.06049 31.1309 7.14756 30.6152L8.78013 21.2051L1.85801 14.5664C1.4662 14.1797 1.2594 13.7285 1.23764 13.2129C1.21587 12.6973 1.36824 12.2246 1.69476 11.7949C2.02127 11.3652 2.46751 11.1074 3.03347 11.0215L12.5677 9.66797L16.8124 1.16016Z" fill="#C4C6CA"/>
</svg>
