<svg width="28" height="28" viewBox="0 0 28 28" fill="none" xmlns="http://www.w3.org/2000/svg">
<g id="book_svgrepo.com">
<path id="Vector" d="M4.66663 22.1667V7.23333C4.66663 5.92655 4.66663 5.27315 4.92095 4.77402C5.14464 4.33497 5.5016 3.97802 5.94065 3.75432C6.43977 3.5 7.09318 3.5 8.39996 3.5H19.6C20.9067 3.5 21.5602 3.5 22.0593 3.75432C22.4983 3.97802 22.8553 4.33497 23.079 4.77402C23.3333 5.27315 23.3333 5.92655 23.3333 7.23333V19.8333H6.99996C5.71129 19.8333 4.66663 20.878 4.66663 22.1667ZM4.66663 22.1667C4.66663 23.4554 5.71129 24.5 6.99996 24.5H23.3333M10.5 8.16667H17.5M10.5 12.8333H17.5M22.1666 19.8333V24.5" stroke="#2A32D3" stroke-width="2" stroke-linecap="round" stroke-linejoin="round"/>
</g>
</svg>
