<svg width="28" height="28" viewBox="0 0 28 28" fill="none" xmlns="http://www.w3.org/2000/svg">
<g id="school-staff-pass-id-teacher_svgrepo.com">
<path id="Vector" d="M25.375 8.75H2.625V22.75H25.375V8.75Z" stroke="#2A32D3" stroke-width="2" stroke-miterlimit="10" stroke-linecap="round" stroke-linejoin="round"/>
<path id="Vector_2" d="M9.625 15.75C10.5915 15.75 11.375 14.9665 11.375 14C11.375 13.0335 10.5915 12.25 9.625 12.25C8.6585 12.25 7.875 13.0335 7.875 14C7.875 14.9665 8.6585 15.75 9.625 15.75Z" stroke="#2A32D3" stroke-width="2" stroke-miterlimit="10" stroke-linecap="round" stroke-linejoin="round"/>
<path id="Vector_3" d="M6.125 19.25C6.125 17.325 7.7 15.75 9.625 15.75C11.55 15.75 13.125 17.325 13.125 19.25" stroke="#2A32D3" stroke-width="2" stroke-miterlimit="10" stroke-linecap="round" stroke-linejoin="round"/>
<path id="Vector_4" d="M16.625 14H21.875" stroke="#2A32D3" stroke-width="2" stroke-miterlimit="10" stroke-linecap="round" stroke-linejoin="round"/>
<path id="Vector_5" d="M19.25 17.5H21.875" stroke="#2A32D3" stroke-width="2" stroke-miterlimit="10" stroke-linecap="round" stroke-linejoin="round"/>
<path id="Vector_6" d="M17.5 8.75H10.5V7.875C10.5 5.95 12.075 4.375 14 4.375C15.925 4.375 17.5 5.95 17.5 7.875V8.75Z" stroke="#2A32D3" stroke-width="2" stroke-miterlimit="10" stroke-linecap="round" stroke-linejoin="round"/>
</g>
</svg>
