<svg width="28" height="28" viewBox="0 0 28 28" fill="none" xmlns="http://www.w3.org/2000/svg">
<g id="school-flag_svgrepo.com">
<path id="Vector" d="M7 18.0835H8.16667M7 21.5835H8.16667M19.8333 21.5835H21M19.8333 18.0835H21M11.6667 25.6669V21.0002C11.6667 19.7115 12.7113 18.6669 14 18.6669C15.2887 18.6669 16.3333 19.7115 16.3333 21.0002V25.6669M14 5.83331H19.6467C19.712 5.83331 19.7447 5.83331 19.7696 5.8206C19.7916 5.80941 19.8094 5.79157 19.8206 5.76961C19.8333 5.74466 19.8333 5.71199 19.8333 5.64665V2.51998C19.8333 2.45463 19.8333 2.42197 19.8206 2.39701C19.8094 2.37506 19.7916 2.35722 19.7696 2.34603C19.7447 2.33331 19.712 2.33331 19.6467 2.33331H14.1867C14.1213 2.33331 14.0887 2.33331 14.0637 2.34603C14.0418 2.35722 14.0239 2.37506 14.0127 2.39701C14 2.42197 14 2.45463 14 2.51998V5.83331ZM14 5.83331V8.97272M14 8.97272C14.2271 8.97272 14.4544 9.00589 14.6742 9.07225C15.1733 9.2229 15.6148 9.62014 16.4975 10.4146L19.8333 13.4169L21.6721 13.8765C22.6833 14.1294 23.1888 14.2557 23.5653 14.5376C23.8973 14.7863 24.1571 15.119 24.3179 15.5016C24.5 15.9351 24.5 16.4562 24.5 17.4985V21.9335C24.5 23.2403 24.5 23.8938 24.2457 24.3929C24.022 24.8319 23.665 25.1889 23.226 25.4125C22.7269 25.6669 22.0734 25.6669 20.7667 25.6669H7.23333C5.92655 25.6669 5.27315 25.6669 4.77402 25.4125C4.33497 25.1889 3.97802 24.8319 3.75432 24.3929C3.5 23.8938 3.5 23.2403 3.5 21.9335V17.4985C3.5 16.4562 3.5 15.9351 3.68215 15.5016C3.84286 15.119 4.10266 14.7863 4.43478 14.5376C4.8112 14.2557 5.31676 14.1294 6.32786 13.8765L8.16667 13.4169L11.5025 10.4146C12.3852 9.62013 12.8267 9.2229 13.3258 9.07225C13.5456 9.00589 13.7728 8.97272 14 8.97272ZM14.035 14.2916H14.0438M14.035 15.1666C13.5518 15.1666 13.16 14.7749 13.16 14.2916C13.16 13.8084 13.5518 13.4166 14.035 13.4166C14.5182 13.4166 14.91 13.8084 14.91 14.2916C14.91 14.7749 14.5182 15.1666 14.035 15.1666Z" stroke="#2A32D3" stroke-width="2" stroke-linecap="round" stroke-linejoin="round"/>
</g>
</svg>
