<svg width="63" height="48" viewBox="0 0 63 48" fill="none" xmlns="http://www.w3.org/2000/svg">
<path d="M1.25916 14.6305L30.499 0.985218C30.7572 0.864695 31.0387 0.802235 31.3236 0.802235C31.6085 0.802235 31.89 0.864695 32.1481 0.985218L61.388 14.6305C61.724 14.7874 62.0082 15.037 62.2073 15.3498C62.4064 15.6626 62.5122 16.0257 62.5122 16.3966C62.5122 16.7674 62.4064 17.1305 62.2073 17.4433C62.0082 17.7562 61.724 18.0057 61.388 18.1627L50.8168 23.0964V37.8391C50.8168 43.3966 42.4347 47.5857 31.3236 47.5857C20.2124 47.5857 11.8303 43.3966 11.8303 37.8391V23.0964L7.9317 21.2757V31.9912C7.9317 32.5082 7.72633 33.004 7.36076 33.3695C6.99519 33.7351 6.49937 33.9405 5.98238 33.9405C5.46538 33.9405 4.96956 33.7351 4.60399 33.3695C4.23842 33.004 4.03305 32.5082 4.03305 31.9912V19.457L1.25916 18.1627C0.923199 18.0057 0.638973 17.7562 0.439846 17.4433C0.240715 17.1305 0.134949 16.7674 0.134949 16.3966C0.134949 16.0257 0.240715 15.6626 0.439846 15.3498C0.638973 15.037 0.923199 14.7874 1.25916 14.6305ZM15.729 37.8391C15.729 40.2251 21.8031 43.6871 31.3236 43.6871C40.8441 43.6871 46.9182 40.2251 46.9182 37.8391V24.9151L32.1481 31.8079C31.89 31.9284 31.6085 31.9909 31.3236 31.9909C31.0387 31.9909 30.7572 31.9284 30.499 31.8079L20.7524 27.2582C20.292 27.0346 19.938 26.6389 19.7669 26.1565C19.5958 25.6742 19.6212 25.1439 19.8377 24.6801C20.0543 24.2163 20.4445 23.8563 20.9242 23.6778C21.4039 23.4993 21.9345 23.5166 22.4015 23.726L31.3236 27.8976L55.9552 16.3966L31.3236 4.89556L6.69388 16.3966L14.6042 20.0886C14.971 20.2622 15.2738 20.547 15.4694 20.9026C15.665 21.2582 15.7436 21.6663 15.6939 22.0691C15.7086 22.1269 15.7203 22.1855 15.729 22.2445V37.8391Z" fill="#EBECF0"/>
</svg>
