<svg width="63" height="63" viewBox="0 0 63 63" fill="none" xmlns="http://www.w3.org/2000/svg">
<path d="M6.65297 31.5887H10.5023C11.0127 31.5887 11.5023 31.7915 11.8632 32.1525C12.2241 32.5134 12.4269 33.0029 12.4269 33.5134C12.4269 34.0238 12.2241 34.5134 11.8632 34.8743C11.5023 35.2353 11.0127 35.438 10.5023 35.438H6.65297C6.14252 35.438 5.65297 35.6408 5.29203 36.0018C4.93109 36.3627 4.72832 36.8522 4.72832 37.3627V58.5338H16.2762V4.64367H14.3516C13.8411 4.64367 13.3516 4.44089 12.9906 4.07995C12.6297 3.71901 12.4269 3.22947 12.4269 2.71902C12.4269 2.20857 12.6297 1.71903 12.9906 1.35809C13.3516 0.997144 13.8411 0.794369 14.3516 0.794369H48.9952C49.5057 0.794369 49.9952 0.997144 50.3562 1.35809C50.7171 1.71903 50.9199 2.20857 50.9199 2.71902C50.9199 3.22947 50.7171 3.71901 50.3562 4.07995C49.9952 4.44089 49.5057 4.64367 48.9952 4.64367H47.0706V58.5338H58.6185V37.3627C58.6185 36.8522 58.4157 36.3627 58.0548 36.0018C57.6938 35.6408 57.2043 35.438 56.6938 35.438H52.8445C52.3341 35.438 51.8445 35.2353 51.4836 34.8743C51.1227 34.5134 50.9199 34.0238 50.9199 33.5134C50.9199 33.0029 51.1227 32.5134 51.4836 32.1525C51.8445 31.7915 52.3341 31.5887 52.8445 31.5887H56.6938C58.2252 31.5887 59.6938 32.1971 60.7766 33.2799C61.8594 34.3627 62.4678 35.8313 62.4678 37.3627V60.4585C62.4678 60.9689 62.265 61.4585 61.9041 61.8194C61.5431 62.1803 61.0536 62.3831 60.5431 62.3831H33.598C33.0876 62.3831 32.5981 62.1803 32.2371 61.8194C31.8762 61.4585 31.6734 60.9689 31.6734 60.4585C31.6734 59.948 31.8762 59.4585 32.2371 59.0975C32.5981 58.7366 33.0876 58.5338 33.598 58.5338H35.5227V48.9106C35.5227 48.4001 35.3199 47.9106 34.959 47.5496C34.598 47.1887 34.1085 46.9859 33.598 46.9859H29.7487C29.2383 46.9859 28.7488 47.1887 28.3878 47.5496C28.0269 47.9106 27.8241 48.4001 27.8241 48.9106V60.4585C27.8241 60.9689 27.6213 61.4585 27.2604 61.8194C26.8994 62.1803 26.4099 62.3831 25.8995 62.3831H2.80367C2.29322 62.3831 1.80368 62.1803 1.44274 61.8194C1.08179 61.4585 0.879021 60.9689 0.879021 60.4585V37.3627C0.879021 35.8313 1.48734 34.3627 2.57017 33.2799C3.653 32.1971 5.12162 31.5887 6.65297 31.5887ZM29.7487 43.1366H33.598C35.1294 43.1366 36.598 43.745 37.6808 44.8278C38.7637 45.9106 39.372 47.3792 39.372 48.9106V58.5338H43.2213V4.64367H20.1255V58.5338H23.9748V48.9106C23.9748 47.3792 24.5831 45.9106 25.666 44.8278C26.7488 43.745 28.2174 43.1366 29.7487 43.1366Z" fill="#EBECF0"/>
<path d="M8.57762 39.2873H12.4269C12.9374 39.2873 13.4269 39.4901 13.7878 39.8511C14.1488 40.212 14.3516 40.7015 14.3516 41.212C14.3516 41.7224 14.1488 42.212 13.7878 42.5729C13.4269 42.9339 12.9374 43.1366 12.4269 43.1366H8.57762C8.06717 43.1366 7.57763 42.9339 7.21668 42.5729C6.85574 42.212 6.65297 41.7224 6.65297 41.212C6.65297 40.7015 6.85574 40.212 7.21668 39.8511C7.57763 39.4901 8.06717 39.2873 8.57762 39.2873Z" fill="#EBECF0"/>
<path d="M8.57762 46.9859H12.4269C12.9374 46.9859 13.4269 47.1887 13.7878 47.5496C14.1488 47.9106 14.3516 48.4001 14.3516 48.9106C14.3516 49.421 14.1488 49.9106 13.7878 50.2715C13.4269 50.6325 12.9374 50.8352 12.4269 50.8352H8.57762C8.06717 50.8352 7.57763 50.6325 7.21668 50.2715C6.85574 49.9106 6.65297 49.421 6.65297 48.9106C6.65297 48.4001 6.85574 47.9106 7.21668 47.5496C7.57763 47.1887 8.06717 46.9859 8.57762 46.9859Z" fill="#EBECF0"/>
<path d="M50.9199 39.2873H54.7692C55.2796 39.2873 55.7692 39.4901 56.1301 39.8511C56.4911 40.212 56.6938 40.7015 56.6938 41.212C56.6938 41.7224 56.4911 42.212 56.1301 42.5729C55.7692 42.9339 55.2796 43.1366 54.7692 43.1366H50.9199C50.4095 43.1366 49.9199 42.9339 49.559 42.5729C49.198 42.212 48.9953 41.7224 48.9953 41.212C48.9953 40.7015 49.198 40.212 49.559 39.8511C49.9199 39.4901 50.4095 39.2873 50.9199 39.2873Z" fill="#EBECF0"/>
<path d="M50.9199 46.9859H54.7692C55.2796 46.9859 55.7692 47.1887 56.1301 47.5496C56.4911 47.9106 56.6938 48.4001 56.6938 48.9106C56.6938 49.421 56.4911 49.9106 56.1301 50.2715C55.7692 50.6325 55.2796 50.8352 54.7692 50.8352H50.9199C50.4095 50.8352 49.9199 50.6325 49.559 50.2715C49.198 49.9106 48.9953 49.421 48.9953 48.9106C48.9953 48.4001 49.198 47.9106 49.559 47.5496C49.9199 47.1887 50.4095 46.9859 50.9199 46.9859Z" fill="#EBECF0"/>
<path d="M31.6733 8.49296C33.196 8.49296 34.6844 8.94448 35.9505 9.79041C37.2165 10.6363 38.2032 11.8387 38.7859 13.2454C39.3686 14.6522 39.5211 16.2001 39.224 17.6935C38.927 19.1869 38.1937 20.5586 37.1171 21.6353C36.0404 22.712 34.6687 23.4452 33.1753 23.7422C31.6819 24.0393 30.134 23.8868 28.7272 23.3041C27.3205 22.7214 26.1181 21.7347 25.2722 20.4687C24.4263 19.2026 23.9748 17.7142 23.9748 16.1916C23.9748 14.1498 24.7859 12.1916 26.2296 10.7478C27.6734 9.30406 29.6316 8.49296 31.6733 8.49296ZM31.6733 20.0409C32.4347 20.0409 33.1789 19.8151 33.8119 19.3921C34.4449 18.9692 34.9383 18.368 35.2296 17.6646C35.521 16.9613 35.5972 16.1873 35.4487 15.4406C35.3002 14.6939 34.9335 14.008 34.3952 13.4697C33.8569 12.9314 33.171 12.5647 32.4243 12.4162C31.6776 12.2677 30.9037 12.3439 30.2003 12.6353C29.4969 12.9266 28.8957 13.42 28.4728 14.053C28.0498 14.686 27.8241 15.4302 27.8241 16.1916C27.8241 17.2125 28.2296 18.1915 28.9515 18.9134C29.6734 19.6353 30.6525 20.0409 31.6733 20.0409Z" fill="#EBECF0"/>
</svg>
