<svg width="63" height="63" viewBox="0 0 63 63" fill="none" xmlns="http://www.w3.org/2000/svg">
<path d="M10.2967 39.2873H12.2213V25.8148C12.2203 22.2318 13.3303 18.7367 15.3984 15.8109C17.4666 12.8852 20.3912 10.6727 23.7692 9.47838V6.56831C23.7692 5.03697 24.3776 3.56834 25.4604 2.48552C26.5432 1.40269 28.0118 0.794369 29.5432 0.794369L33.3925 0.794369C34.9238 0.794369 36.3925 1.40269 37.4753 2.48552C38.5581 3.56834 39.1664 5.03697 39.1664 6.56831V9.5034C42.5395 10.6978 45.4603 12.9068 47.5279 15.8272C49.5955 18.7477 50.7085 22.2365 50.7143 25.8148V39.2873H52.639C55.1903 39.2904 57.6362 40.3052 59.4402 42.1093C61.2443 43.9133 62.2592 46.3593 62.2622 48.9106V56.6092C62.2622 58.1405 61.6539 59.6091 60.5711 60.692C59.4882 61.7748 58.0196 62.3831 56.4883 62.3831H6.4474C4.91605 62.3831 3.44743 61.7748 2.3646 60.692C1.28178 59.6091 0.673454 58.1405 0.673454 56.6092V48.9106C0.67651 46.3593 1.69136 43.9133 3.49541 42.1093C5.29946 40.3052 7.74539 39.2904 10.2967 39.2873ZM58.4129 56.6092V48.9106C58.4129 47.3792 57.8046 45.9106 56.7218 44.8278C55.6389 43.745 54.1703 43.1366 52.639 43.1366H50.7143V58.5338H56.4883C56.9987 58.5338 57.4883 58.3311 57.8492 57.9701C58.2101 57.6092 58.4129 57.1196 58.4129 56.6092ZM46.865 41.212V25.8148C46.8595 22.7731 45.826 19.8225 43.9324 17.4422C42.0387 15.0618 39.396 13.3914 36.4334 12.7022C36.0966 12.6252 35.7559 12.5617 35.4172 12.5097C35.2632 12.4866 35.1112 12.4577 34.9572 12.4385C34.4379 12.3768 33.9155 12.3447 33.3925 12.3423C32.882 12.3423 32.3925 12.1395 32.0315 11.7785C31.6706 11.4176 31.4678 10.9281 31.4678 10.4176C31.4678 9.90716 31.6706 9.41762 32.0315 9.05668C32.3925 8.69574 32.882 8.49296 33.3925 8.49296C34.0136 8.49453 34.6342 8.52923 35.2517 8.59689C35.2729 8.59689 35.296 8.59689 35.3171 8.59689V6.56831C35.3171 6.05787 35.1144 5.56832 34.7534 5.20738C34.3925 4.84644 33.9029 4.64367 33.3925 4.64367H29.5432C29.0327 4.64367 28.5432 4.84644 28.1822 5.20738C27.8213 5.56832 27.6185 6.05787 27.6185 6.56831V10.8988C27.6185 10.9488 27.5935 10.9912 27.5897 11.0393C27.5776 11.1701 27.5512 11.2992 27.5108 11.4242C27.4827 11.5352 27.4447 11.6434 27.3972 11.7475C27.3348 11.8618 27.262 11.97 27.1797 12.0709C27.1126 12.1605 27.0379 12.2442 26.9565 12.3211C26.8562 12.4051 26.7472 12.4781 26.6312 12.5386C26.5311 12.5998 26.4254 12.6514 26.3155 12.6925C26.2655 12.7099 26.227 12.7484 26.1731 12.7618C23.2802 13.5092 20.7177 15.1972 18.8889 17.5601C17.0601 19.923 16.0687 22.8268 16.0706 25.8148V39.2873H41.0911C41.6015 39.2873 42.0911 39.4901 42.452 39.8511C42.8129 40.212 43.0157 40.7015 43.0157 41.212C43.0157 41.7224 42.8129 42.212 42.452 42.5729C42.0911 42.9339 41.6015 43.1366 41.0911 43.1366H16.0706V58.5338H46.865V41.212ZM4.52275 56.6092C4.52275 57.1196 4.72552 57.6092 5.08647 57.9701C5.44741 58.3311 5.93695 58.5338 6.4474 58.5338H12.2213V43.1366H10.2967C8.76535 43.1366 7.29673 43.745 6.2139 44.8278C5.13108 45.9106 4.52275 47.3792 4.52275 48.9106V56.6092Z" fill="#48be9a"/>
<path d="M21.8445 46.9859H41.091C41.6014 46.9859 42.091 47.1887 42.4519 47.5496C42.8128 47.9106 43.0156 48.4001 43.0156 48.9106C43.0156 49.421 42.8128 49.9106 42.4519 50.2715C42.091 50.6325 41.6014 50.8352 41.091 50.8352H39.1663V52.7599C39.1663 53.2703 38.9636 53.7599 38.6026 54.1208C38.2417 54.4818 37.7521 54.6845 37.2417 54.6845C36.7312 54.6845 36.2417 54.4818 35.8807 54.1208C35.5198 53.7599 35.317 53.2703 35.317 52.7599V50.8352H21.8445C21.334 50.8352 20.8445 50.6325 20.4836 50.2715C20.1226 49.9106 19.9198 49.421 19.9198 48.9106C19.9198 48.4001 20.1226 47.9106 20.4836 47.5496C20.8445 47.1887 21.334 46.9859 21.8445 46.9859Z" fill="#48be9a"/>
<path d="M31.4679 31.5887C29.9453 31.5887 28.4568 31.1372 27.1908 30.2913C25.9248 29.4453 24.938 28.243 24.3553 26.8363C23.7726 25.4295 23.6202 23.8816 23.9172 22.3882C24.2143 20.8948 24.9475 19.5231 26.0242 18.4464C27.1009 17.3697 28.4726 16.6365 29.966 16.3395C31.4594 16.0424 33.0073 16.1949 34.414 16.7776C35.8208 17.3602 37.0231 18.347 37.8691 19.613C38.715 20.879 39.1665 22.3675 39.1665 23.8901C39.1665 25.9319 38.3554 27.8901 36.9116 29.3339C35.4679 30.7776 33.5097 31.5887 31.4679 31.5887ZM31.4679 20.0408C30.7066 20.0408 29.9624 20.2666 29.3294 20.6896C28.6963 21.1125 28.203 21.7137 27.9116 22.4171C27.6203 23.1204 27.5441 23.8944 27.6926 24.6411C27.8411 25.3878 28.2077 26.0737 28.746 26.612C29.2844 27.1503 29.9703 27.5169 30.7169 27.6655C31.4636 27.814 32.2376 27.7378 32.941 27.4464C33.6443 27.1551 34.2455 26.6617 34.6685 26.0287C35.0914 25.3957 35.3172 24.6514 35.3172 23.8901C35.3172 22.8692 34.9117 21.8901 34.1898 21.1683C33.4679 20.4464 32.4888 20.0408 31.4679 20.0408Z" fill="#48be9a"/>
</svg>
